<?xml version="1.0" encoding="utf-8"?>
<svg viewBox="71.604 16.481 359.812 359.481" xmlns="http://www.w3.org/2000/svg" name="https://boxy-svg.com">
  <defs>
    <radialGradient gradientUnits="userSpaceOnUse" cx="415.182" cy="102.489" r="16.482" id="gradient-35" gradientTransform="matrix(0.663059, 0.972357, -0.939472, 0.640635, 176.117653, -379.975197)">
      <stop offset="0" style="stop-color: rgba(197, 96, 56, 1)"/>
      <stop offset="1" style="stop-color: rgb(157, 82, 53);"/>
    </radialGradient>
  </defs>
  <g transform="matrix(10.332971, 0, 0, 10.332971, -3418.974121, -726.66449)" style="">
    <path d="M 914.75 86.094 m -5.105 0 a 5.105 4.697 0 1 0 10.21 0 a 5.105 4.697 0 1 0 -10.21 0 Z M 914.75 86.094 m -3.064 0 a 3.064 2.818 0 0 1 6.128 0 a 3.064 2.818 0 0 1 -6.128 0 Z" style="fill: rgb(209, 130, 74);" transform="matrix(-0.707107, 0.707107, -0.707107, -0.707107, 1063.153948, -496.173519)" bxShape="ring 914.75 86.094 3.064 2.818 5.105 4.697 1@49f182f9"/>
    <path d="M 371.604 89.388 C 371.604 98.436 364.224 105.77 355.121 105.77 C 346.018 105.77 338.639 98.436 338.639 89.388 C 338.639 80.34 346.018 73.006 355.121 73.006 C 364.224 73.006 371.604 80.34 371.604 89.388 Z M 354.693 85.639 C 352.638 85.639 350.973 87.305 350.973 89.359 C 350.973 91.414 352.638 93.079 354.693 93.079 C 356.747 93.079 358.413 91.414 358.413 89.359 C 358.413 87.305 356.747 85.639 354.693 85.639 Z" style="stroke-width: 0.8px; stroke: url(#gradient-35); fill: rgb(243, 227, 215);"/>
    <path d="M 588.254 403.156 m -15.304 0 a 15.304 15.295 0 1 0 30.608 0 a 15.304 15.295 0 1 0 -30.608 0 Z M 588.254 403.156 m -9.183 0 a 9.183 9.177 0 0 1 18.366 0 a 9.183 9.177 0 0 1 -18.366 0 Z" style="fill: rgb(228, 212, 200);" transform="matrix(-0.704411, 0.709792, -0.709792, -0.704411, 1055.590592, -44.188491)" bxShape="ring 588.254 403.156 9.183 9.177 15.304 15.295 1@26c167f6"/>
    <path d="M 557.02 369.473 m -11.535 0 a 11.535 11.535 0 1 0 23.07 0 a 11.535 11.535 0 1 0 -23.07 0 Z M 557.02 369.473 m -6.921 0 a 6.921 6.921 0 0 1 13.842 0 a 6.921 6.921 0 0 1 -13.842 0 Z" style="fill: rgb(247, 241, 236);" transform="matrix(-0.595099, 0.803652, -0.803652, -0.595099, 983.440482, -138.520183)" bxShape="ring 557.02 369.473 6.921 6.921 11.535 11.535 1@24bc159f"/>
    <circle style="fill: none; stroke: rgb(240, 230, 222);" cx="354.702" cy="87.958" r="12.173" transform="matrix(1.11056, 0, 0, 1.084209, -38.934387, -6.326179)"/>
    <circle style="fill: none; stroke: rgb(237, 216, 200); stroke-width: 2.64973px;" cx="354.702" cy="87.958" r="12.173" transform="matrix(0.76814, 0, 0, 0.741447, 82.45919, 23.932095)"/>
  </g>
</svg>