<?xml version="1.0" encoding="utf-8"?>
<svg viewBox="71.604 16.481 359.812 359.481" xmlns="http://www.w3.org/2000/svg" xmlnsBx="https://boxy-svg.com">
  <defs>
    <radialGradient gradientUnits="userSpaceOnUse" cx="415.182" cy="102.489" r="16.482" id="gradient-91" gradientTransform="matrix(0.663059, 0.972357, -0.939472, 0.640635, 153.457466, -540.855774)">
      <stop offset="0" style="stop-color: rgba(197, 96, 56, 1)"/>
      <stop offset="1" style="stop-color: rgb(157, 82, 53);"/>
    </radialGradient>
  </defs>
  <g transform="matrix(10.474226, 0, 0, 10.474226, -3231.65332, 945.994263)" style="">
    <path d="M 914.75 86.094 m -5.105 0 a 5.105 4.697 0 1 0 10.21 0 a 5.105 4.697 0 1 0 -10.21 0 Z M 914.75 86.094 m -3.064 0 a 3.064 2.818 0 0 1 6.128 0 a 3.064 2.818 0 0 1 -6.128 0 Z" style="fill: rgb(209, 130, 74);" transform="matrix(-0.707107, 0.707107, -0.707107, -0.707107, 1040.492571, -657.053218)" bxShape="ring 914.75 86.094 3.064 2.818 5.105 4.697 1@49f182f9"/>
    <path d="M 348.944 -71.493 C 348.944 -62.445 341.564 -55.111 332.461 -55.111 C 323.358 -55.111 315.979 -62.445 315.979 -71.493 C 315.979 -80.541 323.358 -87.875 332.461 -87.875 C 341.564 -87.875 348.944 -80.541 348.944 -71.493 Z M 332.033 -75.242 C 329.978 -75.242 328.313 -73.576 328.313 -71.522 C 328.313 -69.467 329.978 -67.802 332.033 -67.802 C 334.087 -67.802 335.753 -69.467 335.753 -71.522 C 335.753 -73.576 334.087 -75.242 332.033 -75.242 Z" style="stroke-width: 0.8px; stroke: url(#gradient-91); fill: rgb(243, 227, 215);"/>
  </g>
</svg>