<?xml version="1.0" encoding="utf-8"?>
<svg viewBox="71.604 16.481 359.812 359.481" xmlns="http://www.w3.org/2000/svg" name="https://boxy-svg.com">
  <defs>
    <radialGradient gradientUnits="userSpaceOnUse" cx="415.182" cy="102.489" r="16.482" id="gradient-23" gradientTransform="matrix(1, 0, 0, 1, 30, -30)">
      <stop offset="0" style="stop-color: rgb(255, 109, 180);"/>
      <stop offset="1" style="stop-color: rgb(255, 0, 123);"/>
    </radialGradient>
    <radialGradient gradientUnits="userSpaceOnUse" cx="415.182" cy="102.489" r="16.482" id="gradient-31" gradientTransform="matrix(0.663059, 0.972357, -0.939472, 0.640635, 266.17749, -396.873932)">
      <stop offset="0" style="stop-color: rgba(197, 96, 56, 1)"/>
      <stop offset="1" style="stop-color: rgb(157, 82, 53);"/>
    </radialGradient>
  </defs>
  <g transform="matrix(10.345487, 0, 0, 10.345487, -4279.731445, -565.53009)" style="">
    <g transform="matrix(1, 0, 0, 1, -7.166658, 1.029352)">
      <path d="M 914.75 86.094 m -5.105 0 a 5.105 4.697 0 1 0 10.21 0 a 5.105 4.697 0 1 0 -10.21 0 Z M 914.75 86.094 m -3.064 0 a 3.064 2.818 0 0 1 6.128 0 a 3.064 2.818 0 0 1 -6.128 0 Z" style="fill: rgb(218, 123, 86);" transform="matrix(-0.707107, 0.707107, -0.707107, -0.707107, 1153.214007, -513.072444)" bxShape="ring 914.75 86.094 3.064 2.818 5.105 4.697 1@49f182f9"/>
      <path d="M 461.664 72.489 C 461.664 81.537 454.284 88.871 445.181 88.871 C 436.078 88.871 428.699 81.537 428.699 72.489 C 428.699 63.441 436.078 56.107 445.181 56.107 C 454.284 56.107 461.664 63.441 461.664 72.489 Z M 444.753 68.74 C 442.698 68.74 441.033 70.406 441.033 72.46 C 441.033 74.515 442.698 76.18 444.753 76.18 C 446.807 76.18 448.473 74.515 448.473 72.46 C 448.473 70.406 446.807 68.74 444.753 68.74 Z" style="fill: url(#gradient-23); stroke: url(#gradient-31); stroke-width: 0.8px;"/>
    </g>
    <g transform="matrix(1, 0, 0, 1, 23.154455, -29.075422)">
      <line style="paint-order: fill; filter: none; stroke-linecap: round; stroke-miterlimit: 5; stroke-linejoin: round; stroke: rgb(2, 219, 38); stroke-width: 0.5px;" x1="400.565" y1="110.165" x2="403.299" y2="109.54" transform="matrix(0, -1, 1, 0, 292.079506, 511.784508)"/>
      <line style="paint-order: fill; filter: none; stroke-linecap: round; stroke-miterlimit: 5; stroke-linejoin: round; stroke: rgb(2, 219, 38); stroke-width: 0.5px;" x1="408.585" y1="115.455" x2="411.318" y2="114.829" transform="matrix(0, 1, -1, 0, 525.093494, -294.80949)"/>
      <line style="paint-order: fill; filter: none; stroke-linecap: round; stroke-miterlimit: 5; stroke-linejoin: round; stroke: rgb(2, 219, 38); stroke-width: 0.5px;" x1="420.551" y1="114.828" x2="422.096" y2="116.95" transform="matrix(-1, 0, 0, -1, 842.647003, 231.778)"/>
      <line style="paint-order: fill; filter: none; stroke-linecap: round; stroke-miterlimit: 5; stroke-linejoin: round; stroke: rgb(2, 219, 38); stroke-width: 0.5px;" x1="419.743" y1="101.408" x2="422.096" y2="100.87"/>
      <line style="paint-order: fill; filter: none; stroke-linecap: round; stroke-miterlimit: 5; stroke-linejoin: round; stroke: rgb(2, 219, 38); stroke-width: 0.5px;" x1="405.676" y1="100.515" x2="408.029" y2="100.973" transform="matrix(0, 1, -1, 0, 507.596493, -306.108494)"/>
      <line style="paint-order: fill; filter: none; stroke-linecap: round; stroke-miterlimit: 5; stroke-linejoin: round; stroke: rgb(2, 219, 38); stroke-width: 0.5px;" x1="412.668" y1="86.654" x2="413.999" y2="88.481" transform="matrix(0, -1, 1, 0, 325.765995, 500.900997)"/>
      <line style="paint-order: fill; filter: none; stroke-linecap: round; stroke-miterlimit: 5; stroke-linejoin: round; stroke: rgb(78, 2, 219); stroke-width: 0.6px;" x1="414.187" y1="92.956" x2="416.92" y2="92.331"/>
      <line style="paint-order: fill; filter: none; stroke-linecap: round; stroke-miterlimit: 5; stroke-linejoin: round; stroke: rgb(78, 2, 219); stroke-width: 0.5px;" x1="412.029" y1="114.913" x2="414.762" y2="114.287" transform="matrix(0, 1, -1, 0, 527.995495, -298.79549)"/>
      <line style="paint-order: fill; filter: none; stroke-linecap: round; stroke-miterlimit: 5; stroke-linejoin: round; stroke: rgb(78, 2, 219); stroke-width: 0.5px;" x1="416.507" y1="107.709" x2="418.053" y2="109.831" transform="matrix(-1, 0, 0, -1, 834.559998, 217.540001)"/>
      <line style="paint-order: fill; filter: none; stroke-linecap: round; stroke-miterlimit: 5; stroke-linejoin: round; stroke: rgb(78, 2, 219); stroke-width: 0.5px;" x1="404.27" y1="109.877" x2="406.623" y2="109.339"/>
      <line style="paint-order: fill; filter: none; stroke-linecap: round; stroke-miterlimit: 5; stroke-linejoin: round; stroke: rgb(78, 2, 219); stroke-width: 0.5px;" x1="422.231" y1="91.873" x2="424.584" y2="92.331" transform="matrix(-1, 0, 0, -1, 846.815002, 184.204002)"/>
      <line style="paint-order: fill; filter: none; stroke-linecap: round; stroke-miterlimit: 5; stroke-linejoin: round; stroke: rgb(78, 2, 219); stroke-width: 0.5px;" x1="409.576" y1="87.985" x2="410.907" y2="89.812" transform="matrix(0, -1, 1, 0, 321.343002, 499.139999)"/>
      <line style="paint-order: fill; filter: none; stroke-linecap: round; stroke-miterlimit: 5; stroke-linejoin: round; stroke: rgb(198, 31, 84); stroke-width: 0.5px;" x1="405.177" y1="113.524" x2="407.53" y2="112.829" transform="matrix(0, -1, 1, 0, 293.176998, 519.530003)"/>
      <line style="paint-order: fill; filter: none; stroke-linecap: round; stroke-miterlimit: 5; stroke-linejoin: round; stroke: rgb(198, 31, 84); stroke-width: 0.5px;" x1="414.018" y1="116.115" x2="417.05" y2="116.573" transform="matrix(0, -1, 1, 0, 299.189999, 531.877995)"/>
      <line style="paint-order: fill; filter: none; stroke-linecap: round; stroke-miterlimit: 5; stroke-linejoin: round; stroke: rgb(198, 31, 84); stroke-width: 0.5px;" x1="423.571" y1="105.268" x2="427.093" y2="104.643" transform="matrix(0, 1, -1, 0, 530.287498, -320.376503)"/>
      <line style="paint-order: fill; filter: none; stroke-linecap: round; stroke-miterlimit: 5; stroke-linejoin: round; stroke: rgb(198, 31, 84); stroke-width: 0.5px;" x1="418.026" y1="86.88" x2="419.571" y2="89.614" transform="matrix(0, 1, -1, 0, 507.045506, -330.55151)"/>
      <line style="paint-order: fill; filter: none; stroke-linecap: round; stroke-miterlimit: 5; stroke-linejoin: round; stroke: rgb(78, 2, 219); stroke-width: 0.5px;" x1="412.801" y1="95.572" x2="415.154" y2="95.034" transform="matrix(0, 1, -1, 0, 509.280491, -318.674496)"/>
      <line style="paint-order: fill; filter: none; stroke-linecap: round; stroke-miterlimit: 5; stroke-linejoin: round; stroke: rgb(2, 219, 38); stroke-width: 0.5px;" x1="419.743" y1="91.419" x2="421.155" y2="92.178" transform="matrix(-1, 0, 0, -1, 840.89801, 183.597)"/>
      <line style="paint-order: fill; filter: none; stroke-linecap: round; stroke-miterlimit: 5; stroke-linejoin: round; stroke: rgb(255, 255, 255); stroke-width: 0.5px;" x1="420.551" y1="109.876" x2="422.904" y2="110.414"/>
      <line style="paint-order: fill; filter: none; stroke-linecap: round; stroke-miterlimit: 5; stroke-linejoin: round; stroke: rgb(255, 255, 255); stroke-width: 0.5px;" x1="408.585" y1="97.511" x2="411.318" y2="98.137"/>
      <line style="paint-order: fill; filter: none; stroke-linecap: round; stroke-miterlimit: 5; stroke-linejoin: round; stroke: rgb(255, 255, 255); stroke-width: 0.5px;" x1="408.495" y1="108.397" x2="411.228" y2="109.203" transform="matrix(0, -1, 1, 0, 301.061493, 518.661499)"/>
      <line style="paint-order: fill; filter: none; stroke-linecap: round; stroke-miterlimit: 5; stroke-linejoin: round; stroke: rgb(255, 255, 255); stroke-width: 0.5px;" x1="405.556" y1="93.023" x2="407.909" y2="93.718" transform="matrix(-1, 0, 0, -1, 813.464996, 186.741005)"/>
      <line style="paint-order: fill; filter: none; stroke-linecap: round; stroke-miterlimit: 5; stroke-linejoin: round; stroke: rgb(255, 255, 255); stroke-width: 0.5px;" x1="399.431" y1="106.31" x2="400.697" y2="104.187"/>
      <line style="paint-order: fill; filter: none; stroke-linecap: round; stroke-miterlimit: 5; stroke-linejoin: round; stroke: rgb(2, 219, 38); stroke-width: 0.5px;" x1="423.339" y1="109.945" x2="426.073" y2="110.57" transform="matrix(0, -1, 1, 0, 314.448494, 534.963493)"/>
      <line style="paint-order: fill; filter: none; stroke-linecap: round; stroke-miterlimit: 5; stroke-linejoin: round; stroke: rgb(2, 219, 38); stroke-width: 0.5px;" x1="426.72" y1="99.325" x2="429.073" y2="98.867" transform="matrix(-1, 0, 0, -1, 855.792999, 198.191994)"/>
      <line style="paint-order: fill; filter: none; stroke-linecap: round; stroke-miterlimit: 5; stroke-linejoin: round; stroke: rgb(78, 2, 219); stroke-width: 0.5px;" x1="419.404" y1="105.036" x2="422.137" y2="105.661" transform="matrix(0, -1, 1, 0, 315.421989, 526.118996)"/>
      <line style="paint-order: fill; filter: none; stroke-linecap: round; stroke-miterlimit: 5; stroke-linejoin: round; stroke: rgb(78, 2, 219); stroke-width: 0.5px;" x1="421.826" y1="112.522" x2="424.179" y2="112.064" transform="matrix(-1, 0, 0, -1, 846.004974, 224.586006)"/>
      <line style="paint-order: fill; filter: none; stroke-linecap: round; stroke-miterlimit: 5; stroke-linejoin: round; stroke: rgb(198, 31, 84); stroke-width: 0.5px;" x1="418.729" y1="96.477" x2="421.462" y2="97.283"/>
      <line style="paint-order: fill; filter: none; stroke-linecap: round; stroke-miterlimit: 5; stroke-linejoin: round; stroke: rgb(198, 31, 84); stroke-width: 0.5px;" x1="419.109" y1="112.539" x2="421.462" y2="113.234"/>
      <line style="paint-order: fill; filter: none; stroke-linecap: round; stroke-miterlimit: 5; stroke-linejoin: round; stroke: rgb(198, 31, 84); stroke-width: 0.5px;" x1="425.019" y1="99.612" x2="426.564" y2="96.878" transform="matrix(-1, 0, 0, -1, 851.583008, 196.489998)"/>
      <line style="paint-order: fill; filter: none; stroke-linecap: round; stroke-miterlimit: 5; stroke-linejoin: round; stroke: rgb(255, 255, 255); stroke-width: 0.5px;" x1="415.32" y1="97.909" x2="418.053" y2="97.283" transform="matrix(-1, 0, 0, -1, 833.373016, 195.191994)"/>
      <line style="paint-order: fill; filter: none; stroke-linecap: round; stroke-miterlimit: 5; stroke-linejoin: round; stroke: rgb(255, 255, 255); stroke-width: 0.5px;" x1="414.218" y1="111.625" x2="416.951" y2="110.819"/>
      <line style="paint-order: fill; filter: none; stroke-linecap: round; stroke-miterlimit: 5; stroke-linejoin: round; stroke: rgb(255, 255, 255); stroke-width: 0.5px;" x1="418.73" y1="94.123" x2="421.083" y2="93.428"/>
      <line style="paint-order: fill; filter: none; stroke-linecap: round; stroke-miterlimit: 5; stroke-linejoin: round; stroke: rgb(255, 255, 255); stroke-width: 0.5px;" x1="428.727" y1="102.064" x2="429.993" y2="104.187" transform="matrix(-1, 0, 0, -1, 858.720001, 206.250999)"/>
      <line style="paint-order: fill; filter: none; stroke-linecap: round; stroke-miterlimit: 5; stroke-linejoin: round; stroke: rgb(198, 31, 84); stroke-width: 0.5px;" x1="409.687" y1="94.126" x2="412.42" y2="94.932"/>
      <line style="paint-order: fill; filter: none; stroke-linecap: round; stroke-miterlimit: 5; stroke-linejoin: round; stroke: rgb(198, 31, 84); stroke-width: 0.5px;" x1="428.109" y1="107.69" x2="430.842" y2="106.884" transform="matrix(0, -1, 1, 0, 322.188507, 536.762512)"/>
      <line style="paint-order: fill; filter: none; stroke-linecap: round; stroke-miterlimit: 5; stroke-linejoin: round; stroke: rgb(198, 31, 84); stroke-width: 0.5px;" x1="410.462" y1="90.488" x2="411.318" y2="92.178"/>
      <line style="paint-order: fill; filter: none; stroke-linecap: round; stroke-miterlimit: 5; stroke-linejoin: round; stroke: rgb(2, 219, 38); stroke-width: 0.5px;" x1="405.242" y1="91.625" x2="407.976" y2="91"/>
      <line style="paint-order: fill; filter: none; stroke-linecap: round; stroke-miterlimit: 5; stroke-linejoin: round; stroke: rgb(2, 219, 38); stroke-width: 0.5px;" x1="399.953" y1="99.645" x2="402.686" y2="99.019" transform="matrix(-1, 0, 0, -1, 802.639008, 198.663994)"/>
      <line style="paint-order: fill; filter: none; stroke-linecap: round; stroke-miterlimit: 5; stroke-linejoin: round; stroke: rgb(2, 219, 38); stroke-width: 0.5px;" x1="423.192" y1="93.363" x2="424.738" y2="95.485" transform="matrix(0, -1, 1, 0, 329.540997, 518.388996)"/>
      <line style="paint-order: fill; filter: none; stroke-linecap: round; stroke-miterlimit: 5; stroke-linejoin: round; stroke: rgb(78, 2, 219); stroke-width: 0.5px;" x1="400.495" y1="103.089" x2="403.228" y2="102.463" transform="matrix(-1, 0, 0, -1, 803.722992, 205.551994)"/>
      <line style="paint-order: fill; filter: none; stroke-linecap: round; stroke-miterlimit: 5; stroke-linejoin: round; stroke: rgb(78, 2, 219); stroke-width: 0.5px;" x1="406.918" y1="105.6" x2="408.464" y2="107.722" transform="matrix(0, -1, 1, 0, 301.029995, 514.351994)"/>
      <line style="paint-order: fill; filter: none; stroke-linecap: round; stroke-miterlimit: 5; stroke-linejoin: round; stroke: rgb(78, 2, 219); stroke-width: 0.5px;" x1="405.67" y1="96.603" x2="408.023" y2="96.065" transform="matrix(0, 1, -1, 0, 503.180511, -310.512512)"/>
      <line style="paint-order: fill; filter: none; stroke-linecap: round; stroke-miterlimit: 5; stroke-linejoin: round; stroke: rgb(198, 31, 84); stroke-width: 0.5px;" x1="402.108" y1="96.082" x2="404.461" y2="95.387"/>
      <line style="paint-order: fill; filter: none; stroke-linecap: round; stroke-miterlimit: 5; stroke-linejoin: round; stroke: rgb(198, 31, 84); stroke-width: 0.5px;" x1="411.155" y1="108.891" x2="414.187" y2="109.349"/>
      <line style="paint-order: fill; filter: none; stroke-linecap: round; stroke-miterlimit: 5; stroke-linejoin: round; stroke: rgb(198, 31, 84); stroke-width: 0.5px;" x1="402.398" y1="109.319" x2="404.751" y2="110.014" transform="matrix(0, 1, -1, 0, 513.241009, -293.908009)"/>
      <line style="paint-order: fill; filter: none; stroke-linecap: round; stroke-miterlimit: 5; stroke-linejoin: round; stroke: rgb(255, 255, 255); stroke-width: 0.5px;" x1="403.873" y1="105.368" x2="406.606" y2="104.562" transform="matrix(0, 1, -1, 0, 510.204483, -300.27449)"/>
      <line style="paint-order: fill; filter: none; stroke-linecap: round; stroke-miterlimit: 5; stroke-linejoin: round; stroke: rgb(198, 31, 84); stroke-width: 0.5px;" x1="403.036" y1="98.077" x2="405.769" y2="98.883" transform="matrix(0, 1, -1, 0, 502.882515, -305.922508)"/>
      <line style="paint-order: fill; filter: none; stroke-linecap: round; stroke-miterlimit: 5; stroke-linejoin: round; stroke: rgb(198, 31, 84); stroke-width: 0.5px;" x1="408.585" y1="104.001" x2="411.318" y2="103.195" transform="matrix(-1, 0, 0, -1, 819.902985, 207.195999)"/>
    </g>
  </g>
</svg>