<?xml version="1.0" encoding="utf-8"?>
<svg viewBox="71.604 16.481 359.812 359.481" xmlns="http://www.w3.org/2000/svg" xmlnsBx="https://boxy-svg.com">
  <defs>
    <radialGradient gradientUnits="userSpaceOnUse" cx="415.182" cy="102.489" r="16.482" id="gradient-50" gradientTransform="matrix(0.663059, 0.972357, -0.939472, 0.640635, 143.69809, -389.077202)">
      <stop offset="0" style="stop-color: rgba(197, 96, 56, 1)"/>
      <stop offset="1" style="stop-color: rgb(157, 82, 53);"/>
    </radialGradient>
  </defs>
  <g transform="matrix(10.302437, 0, 0, 10.302437, -3074.3396, -629.658752)" style="">
    <path d="M 914.75 86.094 m -5.105 0 a 5.105 4.697 0 1 0 10.21 0 a 5.105 4.697 0 1 0 -10.21 0 Z M 914.75 86.094 m -3.064 0 a 3.064 2.818 0 0 1 6.128 0 a 3.064 2.818 0 0 1 -6.128 0 Z" style="fill: rgb(218, 123, 86);" transform="matrix(-0.707107, 0.707107, -0.707107, -0.707107, 1030.733904, -505.275173)" bxShape="ring 914.75 86.094 3.064 2.818 5.105 4.697 1@49f182f9"/>
    <path d="M 339.184 80.286 C 339.184 89.334 331.804 96.668 322.701 96.668 C 313.598 96.668 306.219 89.334 306.219 80.286 C 306.219 71.238 313.598 63.904 322.701 63.904 C 331.804 63.904 339.184 71.238 339.184 80.286 Z M 322.273 76.537 C 320.218 76.537 318.553 78.203 318.553 80.257 C 318.553 82.312 320.218 83.977 322.273 83.977 C 324.327 83.977 325.993 82.312 325.993 80.257 C 325.993 78.203 324.327 76.537 322.273 76.537 Z" style="stroke-width: 0.8px; stroke: url(#gradient-50); fill: rgb(66, 22, 4);"/>
    <g>
      <path d="M 482.898 469.888 L 483.708 470.451 L 483.399 471.362 L 482.397 471.362 L 482.088 470.451 Z" style="fill: rgb(195, 166, 115);" transform="matrix(-0.627209, -0.778851, 0.772538, -0.635048, 252.840613, 760.907235)" bxShape="n-gon 482.898 470.703 0.852 0.815 5 0 1@344697ec"/>
      <path d="M -18.635 -26.523 L -17.733 -24.961 L -19.536 -24.961 L -18.635 -26.523 Z" style="fill: rgb(184, 145, 61);" transform="matrix(0.5, -0.866025, -0.866025, -0.5, 318.77237, 58.238621)" bxShape="triangle -19.536 -26.523 1.803 1.562 0.5 0 1@083f5648"/>
      <path d="M 482.898 469.758 L 483.797 470.411 L 483.453 471.468 L 482.343 471.468 L 481.999 470.411 Z" style="fill: rgb(195, 166, 115);" transform="matrix(0.993617, 0.112807, 0.112807, -0.993617, -204.894748, 492.901646)" bxShape="n-gon 482.898 470.703 0.945 0.945 5 0 1@6c70cf77"/>
      <path d="M 20.438 26.523 L 21.339 28.085 L 19.536 28.085 L 20.438 26.523 Z" style="fill: rgb(184, 145, 61);" transform="matrix(0.866025, 0.5, 0.5, -0.866025, 301.872425, 94.958945)" bxShape="triangle 19.536 26.523 1.803 1.562 0.5 0 1@6e8d5091"/>
      <path d="M 482.898 469.758 L 483.797 470.411 L 483.453 471.468 L 482.343 471.468 L 481.999 470.411 Z" style="fill: rgb(195, 166, 115);" transform="matrix(0.112807, -0.993617, -0.993617, -0.112807, 742.541935, 605.320056)" bxShape="n-gon 482.898 470.703 0.945 0.945 5 0 1@6c70cf77"/>
      <path d="M -18.635 -26.523 L -17.733 -24.961 L -19.536 -24.961 L -18.635 -26.523 Z" style="fill: rgb(184, 145, 61);" transform="matrix(-0.866025, -0.5, -0.5, 0.866025, 300.178303, 83.052367)" bxShape="triangle -19.536 -26.523 1.803 1.562 0.5 0 1@083f5648"/>
      <path d="M -18.635 -26.523 L -17.733 -24.961 L -19.536 -24.961 L -18.635 -26.523 Z" style="fill: rgb(184, 145, 61);" transform="matrix(0.5, -0.866025, -0.866025, -0.5, 317.583833, 46.827633)" bxShape="triangle -19.536 -26.523 1.803 1.562 0.5 0 1@083f5648"/>
      <path d="M -16.623 -23.117 L -15.819 -21.756 L -17.427 -21.756 L -16.623 -23.117 Z" style="fill: rgb(184, 145, 61);" transform="matrix(0.544158, -0.838983, -0.817824, -0.576781, 317.718404, 46.39496)" bxShape="triangle -17.427 -23.117 1.608 1.361 0.5 0 1@a6c89e07"/>
      <path d="M -16.253 -23.642 L -15.467 -22.25 L -17.04 -22.25 L -16.253 -23.642 Z" style="fill: rgb(184, 145, 61);" transform="matrix(0.817206, 0.576345, 0.544569, -0.839617, 357.421108, 63.498009)" bxShape="triangle -17.04 -23.642 1.573 1.392 0.5 0 1@27b56682"/>
      <path d="M 482.898 469.888 L 483.708 470.451 L 483.399 471.362 L 482.397 471.362 L 482.088 470.451 Z" style="fill: rgb(195, 166, 115);" transform="matrix(-0.17817, 0.984, 0.982206, 0.188074, -46.184239, -488.822255)" bxShape="n-gon 482.898 470.703 0.852 0.815 5 0 1@344697ec"/>
      <path d="M 482.898 469.851 L 483.673 470.44 L 483.377 471.392 L 482.419 471.392 L 482.123 470.44 Z" style="fill: rgb(195, 166, 115);" transform="matrix(0.982157, 0.188065, 0.178178, -0.98405, -227.683986, 454.568613)" bxShape="n-gon 482.898 470.703 0.815 0.852 5 0 1@1bddcb72"/>
      <path d="M 20.438 26.523 L 21.339 28.085 L 19.536 28.085 L 20.438 26.523 Z" style="fill: rgb(184, 145, 61);" transform="matrix(0.866025, 0.5, 0.5, -0.866025, 282.712879, 89.077163)" bxShape="triangle 19.536 26.523 1.803 1.562 0.5 0 1@6e8d5091"/>
      <path d="M 482.898 469.758 L 483.797 470.411 L 483.453 471.468 L 482.343 471.468 L 481.999 470.411 Z" style="fill: rgb(195, 166, 115);" transform="matrix(0.112807, -0.993617, -0.993617, -0.112807, 726.179326, 613.06145)" bxShape="n-gon 482.898 470.703 0.945 0.945 5 0 1@6c70cf77"/>
      <path d="M 482.898 469.758 L 483.797 470.411 L 483.453 471.468 L 482.343 471.468 L 481.999 470.411 Z" style="fill: rgb(195, 166, 115);" transform="matrix(-0.993617, -0.112807, -0.112807, 0.993617, 848.57085, -334.463139)" bxShape="n-gon 482.898 470.703 0.945 0.945 5 0 1@6c70cf77"/>
      <path d="M 20.438 26.523 L 21.339 28.085 L 19.536 28.085 L 20.438 26.523 Z" style="fill: rgb(184, 145, 61);" transform="matrix(-0.5, 0.866025, 0.866025, 0.5, 300.473481, 46.373768)" bxShape="triangle 19.536 26.523 1.803 1.562 0.5 0 1@6e8d5091"/>
      <path d="M -18.635 -26.523 L -17.733 -24.961 L -19.536 -24.961 L -18.635 -26.523 Z" style="fill: rgb(184, 145, 61);" transform="matrix(-0.866025, -0.5, -0.5, 0.866025, 283.816975, 95.170989)" bxShape="triangle -19.536 -26.523 1.803 1.562 0.5 0 1@083f5648"/>
      <path d="M 20.438 26.523 L 21.339 28.085 L 19.536 28.085 L 20.438 26.523 Z" style="fill: rgb(184, 145, 61);" transform="matrix(0.5, -0.866025, -0.866025, -0.5, 327.931518, 109.076546)" bxShape="triangle 19.536 26.523 1.803 1.562 0.5 0 1@6e8d5091"/>
      <path d="M 482.898 469.758 L 483.797 470.411 L 483.453 471.468 L 482.343 471.468 L 481.999 470.411 Z" style="fill: rgb(195, 166, 115);" transform="matrix(0.993617, 0.112807, 0.112807, -0.993617, -206.668094, 498.870396)" bxShape="n-gon 482.898 470.703 0.945 0.945 5 0 1@6c70cf77"/>
      <path d="M 20.438 26.523 L 21.339 28.085 L 19.536 28.085 L 20.438 26.523 Z" style="fill: rgb(184, 145, 61);" transform="matrix(0.866025, 0.5, 0.5, -0.866025, 280.971119, 103.274596)" bxShape="triangle 19.536 26.523 1.803 1.562 0.5 0 1@6e8d5091"/>
      <path d="M 482.898 469.758 L 483.797 470.411 L 483.453 471.468 L 482.343 471.468 L 481.999 470.411 Z" style="fill: rgb(195, 166, 115);" transform="matrix(0.112807, -0.993617, -0.993617, -0.112807, 728.309575, 615.916187)" bxShape="n-gon 482.898 470.703 0.945 0.945 5 0 1@6c70cf77"/>
      <path d="M 20.438 26.523 L 21.339 28.085 L 19.536 28.085 L 20.438 26.523 Z" style="fill: rgb(184, 145, 61);" transform="matrix(-0.866025, -0.5, -0.5, 0.866025, 344.143139, 69.449479)" bxShape="triangle 19.536 26.523 1.803 1.562 0.5 0 1@6e8d5091"/>
      <path d="M 20.438 26.523 L 21.339 28.085 L 19.536 28.085 L 20.438 26.523 Z" style="fill: rgb(184, 145, 61);" transform="matrix(0.5, -0.866025, -0.866025, -0.5, 324.935455, 111.132522)" bxShape="triangle 19.536 26.523 1.803 1.562 0.5 0 1@6e8d5091"/>
      <path d="M 18.231 23.117 L 19.035 24.478 L 17.427 24.478 L 18.231 23.117 Z" style="fill: rgb(184, 145, 61);" transform="matrix(0.544158, -0.838983, -0.817824, -0.576781, 322.504862, 116.775313)" bxShape="triangle 17.427 23.117 1.608 1.361 0.5 0 1@cb54c49d"/>
      <path d="M 17.827 23.642 L 18.613 25.034 L 17.04 25.034 L 17.827 23.642 Z" style="fill: rgb(184, 145, 61);" transform="matrix(0.817206, 0.576345, 0.544569, -0.839617, 287.425816, 96.356895)" bxShape="triangle 17.04 23.642 1.573 1.392 0.5 0 1@347581c2"/>
      <path d="M 482.898 469.888 L 483.708 470.451 L 483.399 471.362 L 482.397 471.362 L 482.088 470.451 Z" style="fill: rgb(195, 166, 115);" transform="matrix(-0.17817, 0.984, 0.982206, 0.188074, -59.024025, -475.704182)" bxShape="n-gon 482.898 470.703 0.852 0.815 5 0 1@344697ec"/>
      <path d="M 482.898 469.851 L 483.673 470.44 L 483.377 471.392 L 482.419 471.392 L 482.123 470.44 Z" style="fill: rgb(195, 166, 115);" transform="matrix(0.982157, 0.188065, 0.178178, -0.98405, -246.735286, 458.513041)" bxShape="n-gon 482.898 470.703 0.815 0.852 5 0 1@1bddcb72"/>
      <path d="M -18.635 -26.523 L -17.733 -24.961 L -19.536 -24.961 L -18.635 -26.523 Z" style="fill: rgb(184, 145, 61);" transform="matrix(0.5, -0.866025, -0.866025, -0.5, 315.153748, 37.800945)" bxShape="triangle -19.536 -26.523 1.803 1.562 0.5 0 1@083f5648"/>
      <path d="M 482.898 469.758 L 483.797 470.411 L 483.453 471.468 L 482.343 471.468 L 481.999 470.411 Z" style="fill: rgb(195, 166, 115);" transform="matrix(0.993617, 0.112807, 0.112807, -0.993617, -210.236072, 485.667485)" bxShape="n-gon 482.898 470.703 0.945 0.945 5 0 1@6c70cf77"/>
      <path d="M -18.635 -26.523 L -17.733 -24.961 L -19.536 -24.961 L -18.635 -26.523 Z" style="fill: rgb(184, 145, 61);" transform="matrix(0.866025, 0.5, 0.5, -0.866025, 354.956859, 65.956162)" bxShape="triangle -19.536 -26.523 1.803 1.562 0.5 0 1@083f5648"/>
      <path d="M 482.898 469.758 L 483.797 470.411 L 483.453 471.468 L 482.343 471.468 L 481.999 470.411 Z" style="fill: rgb(195, 166, 115);" transform="matrix(0.112807, -0.993617, -0.993617, -0.112807, 741.934941, 605.000842)" bxShape="n-gon 482.898 470.703 0.945 0.945 5 0 1@6c70cf77"/>
      <path d="M -18.635 -26.523 L -17.733 -24.961 L -19.536 -24.961 L -18.635 -26.523 Z" style="fill: rgb(184, 145, 61);" transform="matrix(-0.866025, -0.5, -0.5, 0.866025, 297.408192, 84.937377)" bxShape="triangle -19.536 -26.523 1.803 1.562 0.5 0 1@083f5648"/>
      <path d="M -18.635 -26.523 L -17.733 -24.961 L -19.536 -24.961 L -18.635 -26.523 Z" style="fill: rgb(184, 145, 61);" transform="matrix(0.5, -0.866025, -0.866025, -0.5, 312.157685, 39.856922)" bxShape="triangle -19.536 -26.523 1.803 1.562 0.5 0 1@083f5648"/>
      <path d="M -16.623 -23.117 L -15.819 -21.756 L -17.427 -21.756 L -16.623 -23.117 Z" style="fill: rgb(184, 145, 61);" transform="matrix(0.544158, -0.838983, -0.817824, -0.576781, 317.285055, 49.951242)" bxShape="triangle -17.427 -23.117 1.608 1.361 0.5 0 1@a6c89e07"/>
      <path d="M -16.253 -23.642 L -15.467 -22.25 L -17.04 -22.25 L -16.253 -23.642 Z" style="fill: rgb(184, 145, 61);" transform="matrix(0.817206, 0.576345, 0.544569, -0.839617, 354.650997, 65.383011)" bxShape="triangle -17.04 -23.642 1.573 1.392 0.5 0 1@27b56682"/>
      <path d="M 482.898 469.888 L 483.708 470.451 L 483.399 471.362 L 482.397 471.362 L 482.088 470.451 Z" style="fill: rgb(195, 166, 115);" transform="matrix(-0.17817, 0.984, 0.982206, 0.188074, -45.39885, -486.619374)" bxShape="n-gon 482.898 470.703 0.852 0.815 5 0 1@344697ec"/>
      <path d="M 482.898 469.851 L 483.673 470.44 L 483.377 471.392 L 482.419 471.392 L 482.123 470.44 Z" style="fill: rgb(195, 166, 115);" transform="matrix(0.982157, 0.188065, 0.178178, -0.98405, -233.109614, 447.597635)" bxShape="n-gon 482.898 470.703 0.815 0.852 5 0 1@1bddcb72"/>
      <path d="M -18.635 -26.523 L -17.733 -24.961 L -19.536 -24.961 L -18.635 -26.523 Z" style="fill: rgb(184, 145, 61);" transform="matrix(-0.866025, 0.5, -0.5, -0.866025, 284.625916, 78.873688)" bxShape="triangle -19.536 -26.523 1.803 1.562 0.5 0 1@083f5648"/>
      <path d="M 482.898 469.758 L 483.797 470.411 L 483.453 471.468 L 482.343 471.468 L 481.999 470.411 Z" style="fill: rgb(195, 166, 115);" transform="matrix(0.112807, 0.993617, -0.993617, 0.112807, 732.755558, -446.600848)" bxShape="n-gon 482.898 470.703 0.945 0.945 5 0 1@6c70cf77"/>
      <path d="M -18.635 -26.523 L -17.733 -24.961 L -19.536 -24.961 L -18.635 -26.523 Z" style="fill: rgb(184, 145, 61);" transform="matrix(0.5, 0.866025, -0.866025, 0.5, 312.781128, 118.676788)" bxShape="triangle -19.536 -26.523 1.803 1.562 0.5 0 1@083f5648"/>
      <path d="M 482.898 469.758 L 483.797 470.411 L 483.453 471.468 L 482.343 471.468 L 481.999 470.411 Z" style="fill: rgb(195, 166, 115);" transform="matrix(-0.993617, 0.112807, -0.112807, -0.993617, 851.825671, 505.654698)" bxShape="n-gon 482.898 470.703 0.945 0.945 5 0 1@6c70cf77"/>
      <path d="M -18.635 -26.523 L -17.733 -24.961 L -19.536 -24.961 L -18.635 -26.523 Z" style="fill: rgb(184, 145, 61);" transform="matrix(-0.5, -0.866025, 0.866025, -0.5, 331.762329, 61.128143)" bxShape="triangle -19.536 -26.523 1.803 1.562 0.5 0 1@083f5648"/>
      <path d="M -18.635 -26.523 L -17.733 -24.961 L -19.536 -24.961 L -18.635 -26.523 Z" style="fill: rgb(184, 145, 61);" transform="matrix(-0.866025, 0.5, -0.5, -0.866025, 286.681885, 75.877625)" bxShape="triangle -19.536 -26.523 1.803 1.562 0.5 0 1@083f5648"/>
      <path d="M -16.623 -23.117 L -15.819 -21.756 L -17.427 -21.756 L -16.623 -23.117 Z" style="fill: rgb(184, 145, 61);" transform="matrix(-0.838983, 0.544158, -0.576781, -0.817824, 296.776184, 81.005005)" bxShape="triangle -17.427 -23.117 1.608 1.361 0.5 0 1@a6c89e07"/>
      <path d="M -16.253 -23.642 L -15.467 -22.25 L -17.04 -22.25 L -16.253 -23.642 Z" style="fill: rgb(184, 145, 61);" transform="matrix(0.576345, 0.817206, -0.839617, 0.544569, 312.207977, 118.370941)" bxShape="triangle -17.04 -23.642 1.573 1.392 0.5 0 1@27b56682"/>
      <path d="M 482.898 469.888 L 483.708 470.451 L 483.399 471.362 L 482.397 471.362 L 482.088 470.451 Z" style="fill: rgb(195, 166, 115);" transform="matrix(0.984, -0.17817, 0.188074, 0.982206, -239.793858, -281.679455)" bxShape="n-gon 482.898 470.703 0.852 0.815 5 0 1@344697ec"/>
      <path d="M 482.898 469.851 L 483.673 470.44 L 483.377 471.392 L 482.419 471.392 L 482.123 470.44 Z" style="fill: rgb(195, 166, 115);" transform="matrix(0.188065, 0.982157, -0.98405, 0.178178, 694.422251, -469.388942)" bxShape="n-gon 482.898 470.703 0.815 0.852 5 0 1@1bddcb72"/>
      <path d="M -18.635 -26.523 L -17.733 -24.961 L -19.536 -24.961 L -18.635 -26.523 Z" style="fill: rgb(184, 145, 61);" transform="matrix(0.866025, 0.5, 0.5, -0.866025, 353.913036, 60.475846)" bxShape="triangle -19.536 -26.523 1.803 1.562 0.5 0 1@083f5648"/>
      <path d="M 482.898 469.758 L 483.797 470.411 L 483.453 471.468 L 482.343 471.468 L 481.999 470.411 Z" style="fill: rgb(195, 166, 115);" transform="matrix(-0.112807, 0.993617, 0.993617, 0.112807, -94.216603, -464.998554)" bxShape="n-gon 482.898 470.703 0.945 0.945 5 0 1@6c70cf77"/>
      <path d="M -18.635 -26.523 L -17.733 -24.961 L -19.536 -24.961 L -18.635 -26.523 Z" style="fill: rgb(184, 145, 61);" transform="matrix(-0.5, 0.866025, 0.866025, 0.5, 325.757812, 100.278946)" bxShape="triangle -19.536 -26.523 1.803 1.562 0.5 0 1@083f5648"/>
      <path d="M 482.898 469.758 L 483.797 470.411 L 483.453 471.468 L 482.343 471.468 L 481.999 470.411 Z" style="fill: rgb(195, 166, 115);" transform="matrix(0.993617, 0.112807, 0.112807, -0.993617, -213.286288, 487.256749)" bxShape="n-gon 482.898 470.703 0.945 0.945 5 0 1@6c70cf77"/>
      <path d="M -18.635 -26.523 L -17.733 -24.961 L -19.536 -24.961 L -18.635 -26.523 Z" style="fill: rgb(184, 145, 61);" transform="matrix(0.5, -0.866025, -0.866025, -0.5, 306.776612, 42.730297)" bxShape="triangle -19.536 -26.523 1.803 1.562 0.5 0 1@083f5648"/>
      <path d="M -18.635 -26.523 L -17.733 -24.961 L -19.536 -24.961 L -18.635 -26.523 Z" style="fill: rgb(184, 145, 61);" transform="matrix(0.866025, 0.5, 0.5, -0.866025, 351.857067, 57.479783)" bxShape="triangle -19.536 -26.523 1.803 1.562 0.5 0 1@083f5648"/>
      <path d="M -16.623 -23.117 L -15.819 -21.756 L -17.427 -21.756 L -16.623 -23.117 Z" style="fill: rgb(184, 145, 61);" transform="matrix(0.838983, 0.544158, 0.576781, -0.817824, 341.762747, 62.60716)" bxShape="triangle -17.427 -23.117 1.608 1.361 0.5 0 1@a6c89e07"/>
      <path d="M -16.253 -23.642 L -15.467 -22.25 L -17.04 -22.25 L -16.253 -23.642 Z" style="fill: rgb(184, 145, 61);" transform="matrix(-0.576345, 0.817206, 0.839617, 0.544569, 326.330955, 99.973098)" bxShape="triangle -17.04 -23.642 1.573 1.392 0.5 0 1@27b56682"/>
      <path d="M 482.898 469.888 L 483.708 470.451 L 483.399 471.362 L 482.397 471.362 L 482.088 470.451 Z" style="fill: rgb(195, 166, 115);" transform="matrix(-0.984, -0.17817, -0.188074, 0.982206, 878.332295, -300.07777)" bxShape="n-gon 482.898 470.703 0.852 0.815 5 0 1@344697ec"/>
      <path d="M 482.898 469.851 L 483.673 470.44 L 483.377 471.392 L 482.419 471.392 L 482.123 470.44 Z" style="fill: rgb(195, 166, 115);" transform="matrix(-0.188065, 0.982157, 0.98405, 0.178178, -55.883219, -487.78628)" bxShape="n-gon 482.898 470.703 0.815 0.852 5 0 1@1bddcb72"/>
      <path d="M 482.898 469.726 L 483.87 470.401 L 483.499 471.493 L 482.297 471.493 L 481.926 470.401 Z" style="fill: rgb(195, 166, 115);" transform="matrix(-0.627209, -0.778851, 0.772538, -0.635048, 255.668799, 756.306221)" bxShape="n-gon 482.898 470.703 1.022 0.977 5 0 1@edae76fe"/>
      <path d="M 482.898 469.57 L 483.976 470.353 L 483.564 471.62 L 482.232 471.62 L 481.82 470.353 Z" style="fill: rgb(195, 166, 115);" transform="matrix(-0.993617, -0.112807, -0.112807, 0.993617, 851.810779, -340.48267)" bxShape="n-gon 482.898 470.703 1.133 1.133 5 0 1@500f9e65"/>
      <path d="M 482.898 469.57 L 483.976 470.353 L 483.564 471.62 L 482.232 471.62 L 481.82 470.353 Z" style="fill: rgb(195, 166, 115);" transform="matrix(0.112807, -0.993617, -0.993617, -0.112807, 731.575871, 609.356311)" bxShape="n-gon 482.898 470.703 1.133 1.133 5 0 1@500f9e65"/>
      <path d="M 24.508 31.806 L 25.589 33.679 L 23.427 33.679 L 24.508 31.806 Z" style="fill: rgb(184, 145, 61);" transform="matrix(0.866025, 0.5, 0.5, -0.866025, 289.83659, 87.255464)" bxShape="triangle 23.427 31.806 2.162 1.873 0.5 0 1@5dad0f90"/>
      <path d="M 21.862 27.722 L 22.826 29.354 L 20.898 29.354 L 21.862 27.722 Z" style="fill: rgb(184, 145, 61);" transform="matrix(0.544158, -0.838983, -0.817824, -0.576781, 339.412339, 110.71022)" bxShape="triangle 20.898 27.722 1.928 1.632 0.5 0 1@3ca3297d"/>
      <path d="M 482.898 469.681 L 483.827 470.387 L 483.472 471.53 L 482.324 471.53 L 481.969 470.387 Z" style="fill: rgb(195, 166, 115);" transform="matrix(0.982157, 0.188065, 0.178178, -0.98405, -227.994273, 440.868876)" bxShape="n-gon 482.898 470.703 0.977 1.022 5 0 1@863b8411"/>
      <path d="M -22.346 -31.806 L -21.265 -29.933 L -23.427 -29.933 L -22.346 -31.806 Z" style="fill: rgb(184, 145, 61);" transform="matrix(-0.866025, 0.5, -0.5, -0.866025, 284.15155, 69.282532)" bxShape="triangle -23.427 -31.806 2.162 1.873 0.5 0 1@0e85eb3b"/>
      <path d="M 482.898 469.57 L 483.976 470.353 L 483.564 471.62 L 482.232 471.62 L 481.82 470.353 Z" style="fill: rgb(195, 166, 115);" transform="matrix(0.993617, 0.112807, 0.112807, -0.993617, -209.252582, 480.292943)" bxShape="n-gon 482.898 470.703 1.133 1.133 5 0 1@500f9e65"/>
      <path d="M 482.898 469.758 L 483.797 470.411 L 483.453 471.468 L 482.343 471.468 L 481.999 470.411 Z" style="fill: rgb(195, 166, 115);" transform="matrix(0.112807, -0.993617, -0.993617, -0.112807, 744.111454, 602.812915)" bxShape="n-gon 482.898 470.703 0.945 0.945 5 0 1@6c70cf77"/>
      <path d="M 482.898 469.831 L 484.377 470.434 L 483.812 471.408 L 481.984 471.408 L 481.419 470.434 Z" style="fill: rgb(195, 166, 115);" transform="matrix(0.112807, -0.993617, -0.993617, -0.112807, 738.218266, 604.087878)" bxShape="n-gon 482.898 470.703 1.555 0.872 5 0 1@04076755"/>
      <path d="M 482.898 469.758 L 483.797 470.411 L 483.453 471.468 L 482.343 471.468 L 481.999 470.411 Z" style="fill: rgb(195, 166, 115);" transform="matrix(0.112807, -0.993617, -0.993617, -0.112807, 748.361699, 613.445667)" bxShape="n-gon 482.898 470.703 0.945 0.945 5 0 1@6c70cf77"/>
      <path d="M -18.635 -26.523 L -17.733 -24.961 L -19.536 -24.961 L -18.635 -26.523 Z" style="fill: rgb(184, 145, 61);" transform="matrix(-0.866025, -0.5, -0.5, 0.866025, 305.998005, 91.178016)" bxShape="triangle -19.536 -26.523 1.803 1.562 0.5 0 1@083f5648"/>
      <path d="M -16.623 -23.117 L -15.819 -21.756 L -17.427 -21.756 L -16.623 -23.117 Z" style="fill: rgb(184, 145, 61);" transform="matrix(0.544158, -0.838983, -0.817824, -0.576781, 323.538107, 54.520601)" bxShape="triangle -17.427 -23.117 1.608 1.361 0.5 0 1@a6c89e07"/>
      <path d="M -16.253 -23.642 L -15.467 -22.25 L -17.04 -22.25 L -16.253 -23.642 Z" style="fill: rgb(184, 145, 61);" transform="matrix(0.817206, 0.576345, 0.544569, -0.839617, 363.24081, 71.62365)" bxShape="triangle -17.04 -23.642 1.573 1.392 0.5 0 1@27b56682"/>
      <path d="M 482.898 469.888 L 483.708 470.451 L 483.399 471.362 L 482.397 471.362 L 482.088 470.451 Z" style="fill: rgb(195, 166, 115);" transform="matrix(-0.17817, 0.984, 0.982206, 0.188074, -40.364506, -480.696614)" bxShape="n-gon 482.898 470.703 0.852 0.815 5 0 1@344697ec"/>
      <path d="M 24.508 31.806 L 25.589 33.679 L 23.427 33.679 L 24.508 31.806 Z" style="fill: rgb(184, 145, 61);" transform="matrix(0.866025, 0.5, 0.5, -0.866025, 295.656292, 95.381102)" bxShape="triangle 23.427 31.806 2.162 1.873 0.5 0 1@5dad0f90"/>
      <path d="M 21.862 27.722 L 22.826 29.354 L 20.898 29.354 L 21.862 27.722 Z" style="fill: rgb(184, 145, 61);" transform="matrix(0.544158, -0.838983, -0.817824, -0.576781, 345.232041, 118.835868)" bxShape="triangle 20.898 27.722 1.928 1.632 0.5 0 1@3ca3297d"/>
      <path d="M 482.898 469.758 L 483.797 470.411 L 483.453 471.468 L 482.343 471.468 L 481.999 470.411 Z" style="fill: rgb(195, 166, 115);" transform="matrix(0.112807, -0.993617, -0.993617, -0.112807, 749.931218, 610.938525)" bxShape="n-gon 482.898 470.703 0.945 0.945 5 0 1@6c70cf77"/>
      <path d="M 482.898 469.831 L 484.377 470.434 L 483.812 471.408 L 481.984 471.408 L 481.419 470.434 Z" style="fill: rgb(195, 166, 115);" transform="matrix(0.112807, -0.993617, -0.993617, -0.112807, 744.038029, 612.213489)" bxShape="n-gon 482.898 470.703 1.555 0.872 5 0 1@04076755"/>
      <path d="M 482.898 469.758 L 483.797 470.411 L 483.453 471.468 L 482.343 471.468 L 481.999 470.411 Z" style="fill: rgb(195, 166, 115);" transform="matrix(0.112807, -0.993617, -0.993617, -0.112807, 744.858464, 621.233691)" bxShape="n-gon 482.898 470.703 0.945 0.945 5 0 1@6c70cf77"/>
      <path d="M 20.438 26.523 L 21.339 28.085 L 19.536 28.085 L 20.438 26.523 Z" style="fill: rgb(184, 145, 61);" transform="matrix(-0.866025, -0.5, -0.5, 0.866025, 358.029613, 79.060242)" bxShape="triangle 19.536 26.523 1.803 1.562 0.5 0 1@6e8d5091"/>
      <path d="M -16.623 -23.117 L -15.819 -21.756 L -17.427 -21.756 L -16.623 -23.117 Z" style="fill: rgb(184, 145, 61);" transform="matrix(0.544158, -0.838983, -0.817824, -0.576781, 320.034963, 62.308565)" bxShape="triangle -17.427 -23.117 1.608 1.361 0.5 0 1@a6c89e07"/>
      <path d="M -16.253 -23.642 L -15.467 -22.25 L -17.04 -22.25 L -16.253 -23.642 Z" style="fill: rgb(184, 145, 61);" transform="matrix(0.817206, 0.576345, 0.544569, -0.839617, 359.737667, 79.411614)" bxShape="triangle -17.04 -23.642 1.573 1.392 0.5 0 1@27b56682"/>
      <path d="M 482.898 469.888 L 483.708 470.451 L 483.399 471.362 L 482.397 471.362 L 482.088 470.451 Z" style="fill: rgb(195, 166, 115);" transform="matrix(-0.17817, 0.984, 0.982206, 0.188074, -43.867668, -472.90865)" bxShape="n-gon 482.898 470.703 0.852 0.815 5 0 1@344697ec"/>
      <path d="M 24.508 31.806 L 25.589 33.679 L 23.427 33.679 L 24.508 31.806 Z" style="fill: rgb(184, 145, 61);" transform="matrix(0.866025, 0.5, 0.5, -0.866025, 292.153149, 103.169073)" bxShape="triangle 23.427 31.806 2.162 1.873 0.5 0 1@5dad0f90"/>
      <path d="M 21.862 27.722 L 22.826 29.354 L 20.898 29.354 L 21.862 27.722 Z" style="fill: rgb(184, 145, 61);" transform="matrix(0.544158, -0.838983, -0.817824, -0.576781, 341.728898, 126.623832)" bxShape="triangle 20.898 27.722 1.928 1.632 0.5 0 1@3ca3297d"/>
      <path d="M 482.898 469.758 L 483.797 470.411 L 483.453 471.468 L 482.343 471.468 L 481.999 470.411 Z" style="fill: rgb(195, 166, 115);" transform="matrix(0.112807, -0.993617, -0.993617, -0.112807, 746.427983, 618.72655)" bxShape="n-gon 482.898 470.703 0.945 0.945 5 0 1@6c70cf77"/>
      <path d="M 482.898 469.831 L 484.377 470.434 L 483.812 471.408 L 481.984 471.408 L 481.419 470.434 Z" style="fill: rgb(195, 166, 115);" transform="matrix(0.112807, -0.993617, -0.993617, -0.112807, 740.534794, 620.001514)" bxShape="n-gon 482.898 470.703 1.555 0.872 5 0 1@04076755"/>
      <path d="M 482.898 469.758 L 483.797 470.411 L 483.453 471.468 L 482.343 471.468 L 481.999 470.411 Z" style="fill: rgb(195, 166, 115);" transform="matrix(0.112807, -0.993617, -0.993617, -0.112807, 746.0033, 606.742297)" bxShape="n-gon 482.898 470.703 0.945 0.945 5 0 1@6c70cf77"/>
      <path d="M -18.635 -26.523 L -17.733 -24.961 L -19.536 -24.961 L -18.635 -26.523 Z" style="fill: rgb(184, 145, 61);" transform="matrix(-0.866025, -0.5, -0.5, 0.866025, 303.639637, 84.474647)" bxShape="triangle -19.536 -26.523 1.803 1.562 0.5 0 1@083f5648"/>
      <path d="M -16.623 -23.117 L -15.819 -21.756 L -17.427 -21.756 L -16.623 -23.117 Z" style="fill: rgb(184, 145, 61);" transform="matrix(0.544158, -0.838983, -0.817824, -0.576781, 321.179739, 47.817232)" bxShape="triangle -17.427 -23.117 1.608 1.361 0.5 0 1@a6c89e07"/>
      <path d="M -16.253 -23.642 L -15.467 -22.25 L -17.04 -22.25 L -16.253 -23.642 Z" style="fill: rgb(184, 145, 61);" transform="matrix(0.817206, 0.576345, 0.544569, -0.839617, 360.882442, 64.920281)" bxShape="triangle -17.04 -23.642 1.573 1.392 0.5 0 1@27b56682"/>
      <path d="M 482.898 469.888 L 483.708 470.451 L 483.399 471.362 L 482.397 471.362 L 482.088 470.451 Z" style="fill: rgb(195, 166, 115);" transform="matrix(-0.17817, 0.984, 0.982206, 0.188074, -42.722874, -487.399983)" bxShape="n-gon 482.898 470.703 0.852 0.815 5 0 1@344697ec"/>
      <path d="M 24.508 31.806 L 25.589 33.679 L 23.427 33.679 L 24.508 31.806 Z" style="fill: rgb(184, 145, 61);" transform="matrix(0.866025, 0.5, 0.5, -0.866025, 293.297924, 88.677744)" bxShape="triangle 23.427 31.806 2.162 1.873 0.5 0 1@5dad0f90"/>
      <path d="M 21.862 27.722 L 22.826 29.354 L 20.898 29.354 L 21.862 27.722 Z" style="fill: rgb(184, 145, 61);" transform="matrix(0.544158, -0.838983, -0.817824, -0.576781, 342.873674, 112.132499)" bxShape="triangle 20.898 27.722 1.928 1.632 0.5 0 1@3ca3297d"/>
      <path d="M 482.898 469.758 L 483.797 470.411 L 483.453 471.468 L 482.343 471.468 L 481.999 470.411 Z" style="fill: rgb(195, 166, 115);" transform="matrix(0.112807, -0.993617, -0.993617, -0.112807, 747.572819, 604.235156)" bxShape="n-gon 482.898 470.703 0.945 0.945 5 0 1@6c70cf77"/>
      <path d="M 482.898 469.831 L 484.377 470.434 L 483.812 471.408 L 481.984 471.408 L 481.419 470.434 Z" style="fill: rgb(195, 166, 115);" transform="matrix(0.112807, -0.993617, -0.993617, -0.112807, 741.679631, 605.51012)" bxShape="n-gon 482.898 470.703 1.555 0.872 5 0 1@04076755"/>
      <path d="M 482.898 469.758 L 483.797 470.411 L 483.453 471.468 L 482.343 471.468 L 481.999 470.411 Z" style="fill: rgb(195, 166, 115);" transform="matrix(0.112807, -0.993617, -0.993617, -0.112807, 727.056279, 610.038196)" bxShape="n-gon 482.898 470.703 0.945 0.945 5 0 1@6c70cf77"/>
      <path d="M -18.635 -26.523 L -17.733 -24.961 L -19.536 -24.961 L -18.635 -26.523 Z" style="fill: rgb(184, 145, 61);" transform="matrix(-0.866025, -0.5, -0.5, 0.866025, 284.692585, 87.770507)" bxShape="triangle -19.536 -26.523 1.803 1.562 0.5 0 1@083f5648"/>
      <path d="M -16.623 -23.117 L -15.819 -21.756 L -17.427 -21.756 L -16.623 -23.117 Z" style="fill: rgb(184, 145, 61);" transform="matrix(0.544158, -0.838983, -0.817824, -0.576781, 302.232687, 51.113092)" bxShape="triangle -17.427 -23.117 1.608 1.361 0.5 0 1@a6c89e07"/>
      <path d="M -16.253 -23.642 L -15.467 -22.25 L -17.04 -22.25 L -16.253 -23.642 Z" style="fill: rgb(184, 145, 61);" transform="matrix(0.817206, 0.576345, 0.544569, -0.839617, 341.93539, 68.216141)" bxShape="triangle -17.04 -23.642 1.573 1.392 0.5 0 1@27b56682"/>
      <path d="M 482.898 469.888 L 483.708 470.451 L 483.399 471.362 L 482.397 471.362 L 482.088 470.451 Z" style="fill: rgb(195, 166, 115);" transform="matrix(-0.17817, 0.984, 0.982206, 0.188074, -61.669941, -484.104115)" bxShape="n-gon 482.898 470.703 0.852 0.815 5 0 1@344697ec"/>
      <path d="M 24.508 31.806 L 25.589 33.679 L 23.427 33.679 L 24.508 31.806 Z" style="fill: rgb(184, 145, 61);" transform="matrix(0.866025, 0.5, 0.5, -0.866025, 274.350872, 91.973596)" bxShape="triangle 23.427 31.806 2.162 1.873 0.5 0 1@5dad0f90"/>
      <path d="M 21.862 27.722 L 22.826 29.354 L 20.898 29.354 L 21.862 27.722 Z" style="fill: rgb(184, 145, 61);" transform="matrix(0.544158, -0.838983, -0.817824, -0.576781, 323.926622, 115.42836)" bxShape="triangle 20.898 27.722 1.928 1.632 0.5 0 1@3ca3297d"/>
      <path d="M 482.898 469.758 L 483.797 470.411 L 483.453 471.468 L 482.343 471.468 L 481.999 470.411 Z" style="fill: rgb(195, 166, 115);" transform="matrix(0.112807, -0.993617, -0.993617, -0.112807, 728.625798, 607.531055)" bxShape="n-gon 482.898 470.703 0.945 0.945 5 0 1@6c70cf77"/>
      <path d="M 482.898 469.831 L 484.377 470.434 L 483.812 471.408 L 481.984 471.408 L 481.419 470.434 Z" style="fill: rgb(195, 166, 115);" transform="matrix(0.112807, -0.993617, -0.993617, -0.112807, 722.732609, 608.806018)" bxShape="n-gon 482.898 470.703 1.555 0.872 5 0 1@04076755"/>
      <path d="M 482.898 469.758 L 483.797 470.411 L 483.453 471.468 L 482.343 471.468 L 481.999 470.411 Z" style="fill: rgb(195, 166, 115);" transform="matrix(0.112807, 0.993617, -0.993617, 0.112807, 725.819584, -450.008319)" bxShape="n-gon 482.898 470.703 0.945 0.945 5 0 1@6c70cf77"/>
      <path d="M -18.635 -26.523 L -17.733 -24.961 L -19.536 -24.961 L -18.635 -26.523 Z" style="fill: rgb(184, 145, 61);" transform="matrix(-0.866025, 0.5, -0.5, -0.866025, 283.456024, 72.259277)" bxShape="triangle -19.536 -26.523 1.803 1.562 0.5 0 1@083f5648"/>
      <path d="M -16.623 -23.117 L -15.819 -21.756 L -17.427 -21.756 L -16.623 -23.117 Z" style="fill: rgb(184, 145, 61);" transform="matrix(0.544158, 0.838983, -0.817824, 0.576781, 300.996124, 108.916695)" bxShape="triangle -17.427 -23.117 1.608 1.361 0.5 0 1@a6c89e07"/>
      <path d="M -16.253 -23.642 L -15.467 -22.25 L -17.04 -22.25 L -16.253 -23.642 Z" style="fill: rgb(184, 145, 61);" transform="matrix(0.817206, -0.576345, 0.544569, 0.839617, 340.698822, 91.813644)" bxShape="triangle -17.04 -23.642 1.573 1.392 0.5 0 1@27b56682"/>
      <path d="M 482.898 469.888 L 483.708 470.451 L 483.399 471.362 L 482.397 471.362 L 482.088 470.451 Z" style="fill: rgb(195, 166, 115);" transform="matrix(-0.17817, -0.984, 0.982206, -0.188074, -62.906761, 644.133686)" bxShape="n-gon 482.898 470.703 0.852 0.815 5 0 1@344697ec"/>
      <path d="M 24.508 31.806 L 25.589 33.679 L 23.427 33.679 L 24.508 31.806 Z" style="fill: rgb(184, 145, 61);" transform="matrix(0.866025, -0.5, 0.5, 0.866025, 273.114288, 68.056183)" bxShape="triangle 23.427 31.806 2.162 1.873 0.5 0 1@5dad0f90"/>
      <path d="M 21.862 27.722 L 22.826 29.354 L 20.898 29.354 L 21.862 27.722 Z" style="fill: rgb(184, 145, 61);" transform="matrix(0.544158, 0.838983, -0.817824, 0.576781, 322.690063, 44.601425)" bxShape="triangle 20.898 27.722 1.928 1.632 0.5 0 1@3ca3297d"/>
      <path d="M 482.898 469.758 L 483.797 470.411 L 483.453 471.468 L 482.343 471.468 L 481.999 470.411 Z" style="fill: rgb(195, 166, 115);" transform="matrix(0.112807, 0.993617, -0.993617, 0.112807, 727.389103, -447.501178)" bxShape="n-gon 482.898 470.703 0.945 0.945 5 0 1@6c70cf77"/>
      <path d="M 482.898 469.831 L 484.377 470.434 L 483.812 471.408 L 481.984 471.408 L 481.419 470.434 Z" style="fill: rgb(195, 166, 115);" transform="matrix(0.112807, 0.993617, -0.993617, 0.112807, 721.495915, -448.776141)" bxShape="n-gon 482.898 470.703 1.555 0.872 5 0 1@04076755"/>
      <path d="M 20.438 26.523 L 21.339 28.085 L 19.536 28.085 L 20.438 26.523 Z" style="fill: rgb(184, 145, 61);" transform="matrix(0.866025, 0.5, 0.5, -0.866025, 299.620167, 105.853614)" bxShape="triangle 19.536 26.523 1.803 1.562 0.5 0 1@6e8d5091"/>
      <path d="M 20.438 26.523 L 21.339 28.085 L 19.536 28.085 L 20.438 26.523 Z" style="fill: rgb(184, 145, 61);" transform="matrix(-0.5, 0.866025, 0.866025, 0.5, 305.42212, 58.893231)" bxShape="triangle 19.536 26.523 1.803 1.562 0.5 0 1@6e8d5091"/>
      <path d="M 482.898 469.758 L 483.797 470.411 L 483.453 471.468 L 482.343 471.468 L 481.999 470.411 Z" style="fill: rgb(195, 166, 115);" transform="matrix(0.993617, 0.112807, 0.112807, -0.993617, -204.938312, 499.56226)" bxShape="n-gon 482.898 470.703 0.945 0.945 5 0 1@6c70cf77"/>
      <path d="M -18.635 -26.523 L -17.733 -24.961 L -19.536 -24.961 L -18.635 -26.523 Z" style="fill: rgb(184, 145, 61);" transform="matrix(0.5, -0.866025, -0.866025, -0.5, 317.328706, 57.199108)" bxShape="triangle -19.536 -26.523 1.803 1.562 0.5 0 1@083f5648"/>
      <path d="M -16.623 -23.117 L -15.819 -21.756 L -17.427 -21.756 L -16.623 -23.117 Z" style="fill: rgb(184, 145, 61);" transform="matrix(0.838983, 0.544158, 0.576781, -0.817824, 353.986105, 74.739202)" bxShape="triangle -17.427 -23.117 1.608 1.361 0.5 0 1@a6c89e07"/>
      <path d="M -16.253 -23.642 L -15.467 -22.25 L -17.04 -22.25 L -16.253 -23.642 Z" style="fill: rgb(184, 145, 61);" transform="matrix(-0.576345, 0.817206, 0.839617, 0.544569, 336.883049, 114.441902)" bxShape="triangle -17.04 -23.642 1.573 1.392 0.5 0 1@27b56682"/>
      <path d="M 482.898 469.888 L 483.708 470.451 L 483.399 471.362 L 482.397 471.362 L 482.088 470.451 Z" style="fill: rgb(195, 166, 115);" transform="matrix(-0.984, -0.17817, -0.188074, 0.982206, 889.202351, -289.165661)" bxShape="n-gon 482.898 470.703 0.852 0.815 5 0 1@344697ec"/>
      <path d="M 24.508 31.806 L 25.589 33.679 L 23.427 33.679 L 24.508 31.806 Z" style="fill: rgb(184, 145, 61);" transform="matrix(-0.5, 0.866025, 0.866025, 0.5, 313.12562, 46.857373)" bxShape="triangle 23.427 31.806 2.162 1.873 0.5 0 1@5dad0f90"/>
      <path d="M 21.862 27.722 L 22.826 29.354 L 20.898 29.354 L 21.862 27.722 Z" style="fill: rgb(184, 145, 61);" transform="matrix(0.838983, 0.544158, 0.576781, -0.817824, 289.670857, 96.433145)" bxShape="triangle 20.898 27.722 1.928 1.632 0.5 0 1@3ca3297d"/>
      <path d="M 482.898 469.758 L 483.797 470.411 L 483.453 471.468 L 482.343 471.468 L 481.999 470.411 Z" style="fill: rgb(195, 166, 115);" transform="matrix(0.993617, 0.112807, 0.112807, -0.993617, -202.431171, 501.131779)" bxShape="n-gon 482.898 470.703 0.945 0.945 5 0 1@6c70cf77"/>
      <path d="M 482.898 469.831 L 484.377 470.434 L 483.812 471.408 L 481.984 471.408 L 481.419 470.434 Z" style="fill: rgb(195, 166, 115);" transform="matrix(0.993617, 0.112807, 0.112807, -0.993617, -203.706134, 495.238591)" bxShape="n-gon 482.898 470.703 1.555 0.872 5 0 1@04076755"/>
      <path d="M 482.898 469.758 L 483.797 470.411 L 483.453 471.468 L 482.343 471.468 L 481.999 470.411 Z" style="fill: rgb(195, 166, 115);" transform="matrix(0.112807, -0.993617, -0.993617, -0.112807, 737.102482, 604.276904)" bxShape="n-gon 482.898 470.703 0.945 0.945 5 0 1@6c70cf77"/>
      <path d="M 20.438 26.523 L 21.339 28.085 L 19.536 28.085 L 20.438 26.523 Z" style="fill: rgb(184, 145, 61);" transform="matrix(-0.866025, -0.5, -0.5, 0.866025, 355.099346, 55.606217)" bxShape="triangle 19.536 26.523 1.803 1.562 0.5 0 1@6e8d5091"/>
      <path d="M 18.231 23.117 L 19.035 24.478 L 17.427 24.478 L 18.231 23.117 Z" style="fill: rgb(184, 145, 61);" transform="matrix(0.544158, -0.838983, -0.817824, -0.576781, 331.124308, 101.260764)" bxShape="triangle 17.427 23.117 1.608 1.361 0.5 0 1@cb54c49d"/>
      <path d="M 17.827 23.642 L 18.613 25.034 L 17.04 25.034 L 17.827 23.642 Z" style="fill: rgb(184, 145, 61);" transform="matrix(0.817206, 0.576345, 0.544569, -0.839617, 298.382023, 82.513634)" bxShape="triangle 17.04 23.642 1.573 1.392 0.5 0 1@347581c2"/>
      <path d="M 482.898 469.888 L 483.708 470.451 L 483.399 471.362 L 482.397 471.362 L 482.088 470.451 Z" style="fill: rgb(195, 166, 115);" transform="matrix(-0.17817, 0.984, 0.982206, 0.188074, -51.624291, -489.864979)" bxShape="n-gon 482.898 470.703 0.852 0.815 5 0 1@344697ec"/>
      <path d="M -22.346 -31.806 L -21.265 -29.933 L -23.427 -29.933 L -22.346 -31.806 Z" style="fill: rgb(184, 145, 61);" transform="matrix(0.866025, 0.5, 0.5, -0.866025, 356.780017, 54.549891)" bxShape="triangle -23.427 -31.806 2.162 1.873 0.5 0 1@0e85eb3b"/>
      <path d="M -19.934 -27.722 L -18.97 -26.09 L -20.898 -26.09 L -19.934 -27.722 Z" style="fill: rgb(184, 145, 61);" transform="matrix(0.544158, -0.838983, -0.817824, -0.576781, 311.373244, 42.622059)" bxShape="triangle -20.898 -27.722 1.928 1.632 0.5 0 1@282a1d72"/>
      <path d="M 482.898 469.758 L 483.797 470.411 L 483.453 471.468 L 482.343 471.468 L 481.999 470.411 Z" style="fill: rgb(195, 166, 115);" transform="matrix(0.112807, -0.993617, -0.993617, -0.112807, 738.672001, 601.769763)" bxShape="n-gon 482.898 470.703 0.945 0.945 5 0 1@6c70cf77"/>
      <path d="M 482.898 469.831 L 484.377 470.434 L 483.812 471.408 L 481.984 471.408 L 481.419 470.434 Z" style="fill: rgb(195, 166, 115);" transform="matrix(0.112807, -0.993617, -0.993617, -0.112807, 732.778813, 603.044727)" bxShape="n-gon 482.898 470.703 1.555 0.872 5 0 1@04076755"/>
      <path d="M 482.898 469.758 L 483.797 470.411 L 483.453 471.468 L 482.343 471.468 L 481.999 470.411 Z" style="fill: rgb(195, 166, 115);" transform="matrix(0.112807, -0.993617, -0.993617, -0.112807, 735.197209, 621.10918)" bxShape="n-gon 482.898 470.703 0.945 0.945 5 0 1@6c70cf77"/>
      <path d="M -18.635 -26.523 L -17.733 -24.961 L -19.536 -24.961 L -18.635 -26.523 Z" style="fill: rgb(184, 145, 61);" transform="matrix(-0.866025, -0.5, -0.5, 0.866025, 292.833515, 98.841506)" bxShape="triangle -19.536 -26.523 1.803 1.562 0.5 0 1@083f5648"/>
      <path d="M -16.623 -23.117 L -15.819 -21.756 L -17.427 -21.756 L -16.623 -23.117 Z" style="fill: rgb(184, 145, 61);" transform="matrix(0.544158, -0.838983, -0.817824, -0.576781, 310.373617, 62.184084)" bxShape="triangle -17.427 -23.117 1.608 1.361 0.5 0 1@a6c89e07"/>
      <path d="M 482.898 469.888 L 483.708 470.451 L 483.399 471.362 L 482.397 471.362 L 482.088 470.451 Z" style="fill: rgb(195, 166, 115);" transform="matrix(-0.17817, 0.984, 0.982206, 0.188074, -53.528999, -473.033131)" bxShape="n-gon 482.898 470.703 0.852 0.815 5 0 1@344697ec"/>
      <path d="M 24.508 31.806 L 25.589 33.679 L 23.427 33.679 L 24.508 31.806 Z" style="fill: rgb(184, 145, 61);" transform="matrix(0.866025, 0.5, 0.5, -0.866025, 282.491803, 103.044592)" bxShape="triangle 23.427 31.806 2.162 1.873 0.5 0 1@5dad0f90"/>
      <path d="M 21.862 27.722 L 22.826 29.354 L 20.898 29.354 L 21.862 27.722 Z" style="fill: rgb(184, 145, 61);" transform="matrix(0.544158, -0.838983, -0.817824, -0.576781, 332.067552, 126.499359)" bxShape="triangle 20.898 27.722 1.928 1.632 0.5 0 1@3ca3297d"/>
      <path d="M 482.898 469.758 L 483.797 470.411 L 483.453 471.468 L 482.343 471.468 L 481.999 470.411 Z" style="fill: rgb(195, 166, 115);" transform="matrix(0.112807, -0.993617, -0.993617, -0.112807, 736.766728, 618.602039)" bxShape="n-gon 482.898 470.703 0.945 0.945 5 0 1@6c70cf77"/>
      <path d="M 482.898 469.831 L 484.377 470.434 L 483.812 471.408 L 481.984 471.408 L 481.419 470.434 Z" style="fill: rgb(195, 166, 115);" transform="matrix(0.112807, -0.993617, -0.993617, -0.112807, 730.873539, 619.877002)" bxShape="n-gon 482.898 470.703 1.555 0.872 5 0 1@04076755"/>
      <path d="M 482.898 469.758 L 483.797 470.411 L 483.453 471.468 L 482.343 471.468 L 481.999 470.411 Z" style="fill: rgb(195, 166, 115);" transform="matrix(0.112807, -0.993617, -0.993617, -0.112807, 729.476323, 604.740955)" bxShape="n-gon 482.898 470.703 0.945 0.945 5 0 1@6c70cf77"/>
      <path d="M 20.438 26.523 L 21.339 28.085 L 19.536 28.085 L 20.438 26.523 Z" style="fill: rgb(184, 145, 61);" transform="matrix(-0.866025, -0.5, -0.5, 0.866025, 347.475475, 56.07261)" bxShape="triangle 19.536 26.523 1.803 1.562 0.5 0 1@6e8d5091"/>
      <path d="M 18.231 23.117 L 19.035 24.478 L 17.427 24.478 L 18.231 23.117 Z" style="fill: rgb(184, 145, 61);" transform="matrix(0.544158, -0.838983, -0.817824, -0.576781, 323.500437, 101.727179)" bxShape="triangle 17.427 23.117 1.608 1.361 0.5 0 1@cb54c49d"/>
      <path d="M 482.898 469.888 L 483.708 470.451 L 483.399 471.362 L 482.397 471.362 L 482.088 470.451 Z" style="fill: rgb(195, 166, 115);" transform="matrix(-0.17817, 0.984, 0.982206, 0.188074, -59.257778, -489.394856)" bxShape="n-gon 482.898 470.703 0.852 0.815 5 0 1@344697ec"/>
      <path d="M -22.346 -31.806 L -21.265 -29.933 L -23.427 -29.933 L -22.346 -31.806 Z" style="fill: rgb(184, 145, 61);" transform="matrix(0.866025, 0.5, 0.5, -0.866025, 349.156086, 55.016275)" bxShape="triangle -23.427 -31.806 2.162 1.873 0.5 0 1@0e85eb3b"/>
      <path d="M -19.934 -27.722 L -18.97 -26.09 L -20.898 -26.09 L -19.934 -27.722 Z" style="fill: rgb(184, 145, 61);" transform="matrix(0.544158, -0.838983, -0.817824, -0.576781, 303.749373, 43.088475)" bxShape="triangle -20.898 -27.722 1.928 1.632 0.5 0 1@282a1d72"/>
      <path d="M 482.898 469.758 L 483.797 470.411 L 483.453 471.468 L 482.343 471.468 L 481.999 470.411 Z" style="fill: rgb(195, 166, 115);" transform="matrix(0.112807, -0.993617, -0.993617, -0.112807, 731.045842, 602.233814)" bxShape="n-gon 482.898 470.703 0.945 0.945 5 0 1@6c70cf77"/>
      <path d="M 482.898 469.831 L 484.377 470.434 L 483.812 471.408 L 481.984 471.408 L 481.419 470.434 Z" style="fill: rgb(195, 166, 115);" transform="matrix(0.112807, -0.993617, -0.993617, -0.112807, 725.152653, 603.508777)" bxShape="n-gon 482.898 470.703 1.555 0.872 5 0 1@04076755"/>
      <path d="M 482.898 469.758 L 483.797 470.411 L 483.453 471.468 L 482.343 471.468 L 481.999 470.411 Z" style="fill: rgb(195, 166, 115);" transform="matrix(0.112807, -0.993617, -0.993617, -0.112807, 745.625187, 617.72594)" bxShape="n-gon 482.898 470.703 0.945 0.945 5 0 1@6c70cf77"/>
      <path d="M 20.438 26.523 L 21.339 28.085 L 19.536 28.085 L 20.438 26.523 Z" style="fill: rgb(184, 145, 61);" transform="matrix(-0.866025, -0.5, -0.5, 0.866025, 363.621807, 69.055047)" bxShape="triangle 19.536 26.523 1.803 1.562 0.5 0 1@6e8d5091"/>
      <path d="M 18.231 23.117 L 19.035 24.478 L 17.427 24.478 L 18.231 23.117 Z" style="fill: rgb(184, 145, 61);" transform="matrix(0.544158, -0.838983, -0.817824, -0.576781, 339.646769, 114.709601)" bxShape="triangle 17.427 23.117 1.608 1.361 0.5 0 1@cb54c49d"/>
      <path d="M 17.827 23.642 L 18.613 25.034 L 17.04 25.034 L 17.827 23.642 Z" style="fill: rgb(184, 145, 61);" transform="matrix(0.817206, 0.576345, 0.544569, -0.839617, 306.904484, 95.962463)" bxShape="triangle 17.04 23.642 1.573 1.392 0.5 0 1@347581c2"/>
      <path d="M 482.898 469.888 L 483.708 470.451 L 483.399 471.362 L 482.397 471.362 L 482.088 470.451 Z" style="fill: rgb(195, 166, 115);" transform="matrix(-0.17817, 0.984, 0.982206, 0.188074, -43.100815, -476.416523)" bxShape="n-gon 482.898 470.703 0.852 0.815 5 0 1@344697ec"/>
      <path d="M -22.346 -31.806 L -21.265 -29.933 L -23.427 -29.933 L -22.346 -31.806 Z" style="fill: rgb(184, 145, 61);" transform="matrix(0.866025, 0.5, 0.5, -0.866025, 365.302478, 67.998713)" bxShape="triangle -23.427 -31.806 2.162 1.873 0.5 0 1@0e85eb3b"/>
      <path d="M -19.934 -27.722 L -18.97 -26.09 L -20.898 -26.09 L -19.934 -27.722 Z" style="fill: rgb(184, 145, 61);" transform="matrix(0.544158, -0.838983, -0.817824, -0.576781, 319.895705, 56.070881)" bxShape="triangle -20.898 -27.722 1.928 1.632 0.5 0 1@282a1d72"/>
      <path d="M 482.898 469.758 L 483.797 470.411 L 483.453 471.468 L 482.343 471.468 L 481.999 470.411 Z" style="fill: rgb(195, 166, 115);" transform="matrix(0.112807, -0.993617, -0.993617, -0.112807, 747.194706, 615.218799)" bxShape="n-gon 482.898 470.703 0.945 0.945 5 0 1@6c70cf77"/>
      <path d="M 482.898 469.831 L 484.377 470.434 L 483.812 471.408 L 481.984 471.408 L 481.419 470.434 Z" style="fill: rgb(195, 166, 115);" transform="matrix(0.112807, -0.993617, -0.993617, -0.112807, 741.301518, 616.493762)" bxShape="n-gon 482.898 470.703 1.555 0.872 5 0 1@04076755"/>
    </g>
  </g>
</svg>