<?xml version="1.0" encoding="utf-8"?>
<svg viewBox="71.604 16.481 359.812 359.481" xmlns="http://www.w3.org/2000/svg" name="https://boxy-svg.com">
  <defs>
    <radialGradient gradientUnits="userSpaceOnUse" cx="416.023" cy="102.558" r="16.482" id="gradient-88" gradientTransform="matrix(-0.006153, 0.951027, -0.999979, -0.006469, 550.223328, -321.697052)">
      <stop offset="0" style="stop-color: rgb(134, 45, 10);"/>
      <stop offset="1" style="stop-color: rgb(80, 26, 4);"/>
    </radialGradient>
    <radialGradient gradientUnits="userSpaceOnUse" cx="415.182" cy="102.489" r="16.482" id="gradient-89" gradientTransform="matrix(0.663059, 0.972357, -0.939472, 0.640635, 266.17749, -396.873932)">
      <stop offset="0" style="stop-color: rgba(197, 96, 56, 1)"/>
      <stop offset="1" style="stop-color: rgb(157, 82, 53);"/>
    </radialGradient>
  </defs>
  <g transform="matrix(10.474227, 0, 0, 10.474227, -3741.828369, 204.178696)" style="">
    <g transform="matrix(1, 0, 0, 1, -64.012383, -73.158897)">
      <path d="M 914.75 86.094 m -5.105 0 a 5.105 4.697 0 1 0 10.21 0 a 5.105 4.697 0 1 0 -10.21 0 Z M 914.75 86.094 m -3.064 0 a 3.064 2.818 0 0 1 6.128 0 a 3.064 2.818 0 0 1 -6.128 0 Z" style="fill: rgb(209, 130, 74);" transform="matrix(-0.707107, 0.707107, -0.707107, -0.707107, 1153.213519, -513.072078)" bxShape="ring 914.75 86.094 3.064 2.818 5.105 4.697 1@49f182f9"/>
      <path d="M 461.664 72.489 C 461.664 81.537 454.284 88.871 445.181 88.871 C 436.078 88.871 428.699 81.537 428.699 72.489 C 428.699 63.441 436.078 56.107 445.181 56.107 C 454.284 56.107 461.664 63.441 461.664 72.489 Z M 444.753 68.74 C 442.698 68.74 441.033 70.406 441.033 72.46 C 441.033 74.515 442.698 76.18 444.753 76.18 C 446.807 76.18 448.473 74.515 448.473 72.46 C 448.473 70.406 446.807 68.74 444.753 68.74 Z" style="stroke-width: 0.8px; fill: url(#gradient-88); stroke: url(#gradient-89);"/>
    </g>
  </g>
</svg>