<?xml version="1.0" encoding="utf-8"?>
<svg viewBox="62.358 204.136 382.126 171.826" xmlns="http://www.w3.org/2000/svg" xmlnsBx="https://boxy-svg.com">
  <defs>
    <linearGradient gradientUnits="userSpaceOnUse" x1="337.111" y1="168.368" x2="337.111" y2="188.675" id="gradient-127" gradientTransform="matrix(0.542706, 0, 0, 0.542706, 113.818665, 186.866592)">
      <stop offset="0" style="stop-color: rgba(255, 236, 246, 1)"/>
      <stop offset="1" style="stop-color: rgba(255, 134, 199, 1)"/>
    </linearGradient>
    <radialGradient gradientUnits="userSpaceOnUse" cx="415.182" cy="102.489" r="16.482" id="gradient-80" gradientTransform="matrix(0.663059, 0.972357, -0.939472, 0.640635, 266.17749, -396.873932)">
      <stop offset="0" style="stop-color: rgba(197, 96, 56, 1)"/>
      <stop offset="1" style="stop-color: rgb(157, 82, 53);"/>
    </radialGradient>
    <radialGradient gradientUnits="userSpaceOnUse" cx="415.182" cy="102.489" r="16.482" id="gradient-81" gradientTransform="matrix(0.663059, 0.972357, -0.939472, 0.640635, 153.548119, -436.713142)">
      <stop offset="0" style="stop-color: rgba(197, 96, 56, 1)"/>
      <stop offset="1" style="stop-color: rgb(157, 82, 53);"/>
    </radialGradient>
    <radialGradient gradientUnits="userSpaceOnUse" cx="415.182" cy="102.489" r="16.482" id="gradient-82" gradientTransform="matrix(0.663059, 0.972357, -0.939472, 0.640635, 177.117653, -379.975197)">
      <stop offset="0" style="stop-color: rgba(197, 96, 56, 1)"/>
      <stop offset="1" style="stop-color: rgb(157, 82, 53);"/>
    </radialGradient>
    <linearGradient gradientUnits="userSpaceOnUse" x1="192.854" y1="90.711" x2="192.854" y2="121.803" id="gradient-135" gradientTransform="matrix(0.278553, -0.465766, 0.751128, 0.449215, 146.216522, 332.702698)">
      <stop offset="0" style="stop-color: rgba(255, 236, 246, 1)"/>
      <stop offset="1" style="stop-color: rgba(255, 134, 199, 1)"/>
    </linearGradient>
    <linearGradient gradientUnits="userSpaceOnUse" x1="233.478" y1="100.869" x2="233.478" y2="121.803" id="gradient-136" gradientTransform="matrix(0.104738, 0.532504, -1.359084, 0.272992, 429.180725, 139.992844)">
      <stop offset="0" style="stop-color: rgba(255, 236, 246, 1)"/>
      <stop offset="1" style="stop-color: rgba(255, 134, 199, 1)"/>
    </linearGradient>
    <linearGradient gradientUnits="userSpaceOnUse" x1="336.747" y1="166.815" x2="336.747" y2="176.018" id="gradient-67" gradientTransform="matrix(0.835198, 0.66051, -6.30807, 8.10851, 1259.505784, -1353.604558)">
      <stop offset="0" style="stop-color: rgba(255, 236, 246, 1)"/>
      <stop offset="1" style="stop-color: rgba(255, 134, 199, 1)"/>
    </linearGradient>
    <linearGradient gradientUnits="userSpaceOnUse" x1="309.664" y1="172.921" x2="309.664" y2="196.367" id="gradient-68" gradientTransform="matrix(-0.429145, -0.974507, 1.92017, -0.903402, 215.506443, 723.707395)">
      <stop offset="0" style="stop-color: rgba(255, 196, 228, 1)"/>
      <stop offset="1" style="stop-color: rgba(255, 94, 182, 1)"/>
    </linearGradient>
    <radialGradient gradientUnits="userSpaceOnUse" cx="415.182" cy="102.489" r="16.482" id="gradient-137" gradientTransform="matrix(0.968386, -0.102386, 0.099224, 0.994768, 32.956338, 13.045102)">
      <stop offset="0" style="stop-color: rgb(255, 109, 180);"/>
      <stop offset="1" style="stop-color: rgb(255, 0, 123);"/>
    </radialGradient>
    <radialGradient gradientUnits="userSpaceOnUse" cx="415.182" cy="102.489" r="16.482" id="gradient-138" gradientTransform="matrix(0.663059, 0.972357, -0.939472, 0.640635, 266.17749, -396.873932)">
      <stop offset="0" style="stop-color: rgba(197, 96, 56, 1)"/>
      <stop offset="1" style="stop-color: rgb(157, 82, 53);"/>
    </radialGradient>
  </defs>
  <g transform="matrix(4.225144, 0, 0, 4.180925, -1642.89856, -859.801575)" style="">
    <g transform="matrix(1.740381, 0, 0, 1.740381, -70.479683, -227.13942)">
      <title>caixa-6-revisada</title>
      <path d="M 304.593 281.094 L 317.521 289.901 L 287.253 295.503 L 277.676 285.771 L 304.593 281.094 Z" style="fill: rgb(255, 236, 246);"/>
      <path d="M 281.366 281.727 C 284.385 281.325 304.1 279.064 304.722 279.178 C 305.344 279.293 319.958 288.663 319.423 288.978 L 315.671 289.637 L 304.452 282.178 L 278.781 286.058 L 277.848 285.296 C 279.088 283.943 279.615 283.438 281.366 281.727 Z" style="fill: url(#gradient-127);"/>
      <g transform="matrix(1, 0, 0, 1, -0.000009, -0.000009)">
        <title>seis-donuts</title>
        <g transform="matrix(0.289896, 0.036664, -0.007823, 0.188008, 186.882813, 263.052887)" style="">
          <g transform="matrix(1, 0, 0, 1, -89.059837, 16.898735)">
            <path d="M 461.664 72.489 C 461.664 81.537 454.284 88.871 445.181 88.871 C 436.078 88.871 428.699 81.537 428.699 72.489 C 428.699 63.441 436.078 56.107 445.181 56.107 C 454.284 56.107 461.664 63.441 461.664 72.489 Z M 444.753 68.74 C 442.698 68.74 441.033 70.406 441.033 72.46 C 441.033 74.515 442.698 76.18 444.753 76.18 C 446.807 76.18 448.473 74.515 448.473 72.46 C 448.473 70.406 446.807 68.74 444.753 68.74 Z" style="stroke-width: 0.8px; fill: rgb(243, 227, 215); stroke: url(#gradient-80);"/>
            <path style=""/>
          </g>
          <circle style="fill: none; stroke: rgb(237, 216, 200); stroke-width: 2.64973px;" cx="354.702" cy="87.958" r="12.173" transform="matrix(0.76814, 0, 0, 0.741447, 83.182739, 24.112026)"/>
        </g>
        <g transform="matrix(0.263791, -0.067543, 0.162418, 0.175092, 206.664627, 308.169922)" style="">
          <path d="M 349.034 32.65 C 349.034 41.698 341.654 49.032 332.551 49.032 C 323.448 49.032 316.069 41.698 316.069 32.65 C 316.069 23.602 323.448 16.268 332.551 16.268 C 341.654 16.268 349.034 23.602 349.034 32.65 Z M 332.123 28.901 C 330.068 28.901 328.403 30.567 328.403 32.621 C 328.403 34.676 330.068 36.341 332.123 36.341 C 334.177 36.341 335.843 34.676 335.843 32.621 C 335.843 30.567 334.177 28.901 332.123 28.901 Z" style="stroke-width: 0.8px; fill: rgb(89, 30, 7); stroke: url(#gradient-81);"/>
        </g>
        <g transform="matrix(0.289896, 0.036664, -0.007823, 0.188008, 207.089554, 259.593262)" style="">
          <path d="M 372.604 89.388 C 372.604 98.436 365.224 105.77 356.121 105.77 C 347.018 105.77 339.639 98.436 339.639 89.388 C 339.639 80.34 347.018 73.006 356.121 73.006 C 365.224 73.006 372.604 80.34 372.604 89.388 Z M 355.693 85.639 C 353.638 85.639 351.973 87.305 351.973 89.359 C 351.973 91.414 353.638 93.079 355.693 93.079 C 357.747 93.079 359.413 91.414 359.413 89.359 C 359.413 87.305 357.747 85.639 355.693 85.639 Z" style="stroke-width: 0.8px; fill: rgb(243, 227, 215); stroke: url(#gradient-82);"/>
        </g>
      </g>
      <path d="M 274.91 283.469 L 274.57 288.26 L 287.33 300.343 L 288.094 293.841 L 277.878 285.274 L 276.103 285.771 L 274.91 283.469 Z" style="fill: url(#gradient-135);"/>
      <path d="M 319.437 288.982 L 319.05 294.233 L 287.321 300.343 L 288.094 293.853 L 319.437 288.982 Z" style="fill: url(#gradient-136);"/>
    </g>
    <path d="M 460.66 258.382 L 407.711 262.982 L 431.447 265.97 L 493.883 259.555 L 460.66 258.382 Z" style="fill: url(#gradient-67);" transform="matrix(0.999998, -0.002137, 0.002137, 0.999998, -0.614306, 0.753896)" bx:origin="-0.641 3.882"/>
    <path d="M 406.907 263.343 L 428.834 253.616 L 435.167 264.877 L 411.758 271.59 L 406.907 263.343 Z" style="fill: url(#gradient-68);" transform="matrix(0.853702, 0.520762, -0.520762, 0.853702, 197.653766, -173.939921)" bx:origin="0.053 0.623"/>
    <path d="M 493.813 271.732 L 494.186 259.329 L 431.459 265.529 L 431.114 278.774 L 493.813 271.732 Z" style="fill: rgb(255, 196, 228);" transform="matrix(0.999998, -0.002137, 0.002137, 0.999998, -0.742508, 0.973843)" bx:origin="0.384 4.557"/>
    <g transform="matrix(0.339982, -0.049965, 0.305774, 0.054824, 289.088959, 281.921448)" style="" bx:origin="0.474 0.501">
      <g transform="matrix(1, 0, 0, 1, 3.418031, -40.765423)">
        <g transform="matrix(1, 0, 0, 1, -7.166658, 1.029352)">
          <path d="M 914.75 86.094 m -5.105 0 a 5.105 4.697 0 1 0 10.21 0 a 5.105 4.697 0 1 0 -10.21 0 Z M 914.75 86.094 m -3.064 0 a 3.064 2.818 0 0 1 6.128 0 a 3.064 2.818 0 0 1 -6.128 0 Z" style="fill: rgb(218, 123, 86); fill-opacity: 0.67;" transform="matrix(-0.707107, 0.707107, -0.707107, -0.707107, 1153.214007, -513.072444)" bxShape="ring 914.75 86.094 3.064 2.818 5.105 4.697 1@49f182f9"/>
          <path d="M 454.855 79.293 C 455.358 82.307 457.363 81.554 458.366 81.282 C 458.722 81.185 458.961 81.357 458.95 81.37 C 455.428 85.684 451.586 88.871 445.181 88.871 C 436.078 88.871 428.699 81.537 428.699 72.489 C 428.699 63.441 436.078 56.107 445.181 56.107 C 451.177 56.107 456.465 59.266 459.31 64.047 C 459.334 64.087 459.29 64.286 459.152 64.237 C 456.627 63.352 455.574 65.577 455.602 65.945 C 455.605 65.98 455.269 65.962 455.068 65.945 C 453.13 65.779 451.638 67.772 451.984 69.272 C 452.011 69.391 452.026 69.549 451.94 69.629 C 449.057 72.336 451.812 74.421 451.643 74.998 C 450.495 78.911 454.827 79.124 454.855 79.293 Z M 444.753 68.74 C 442.698 68.74 441.033 70.406 441.033 72.46 C 441.033 74.515 442.698 76.18 444.753 76.18 C 446.807 76.18 448.473 74.515 448.473 72.46 C 448.473 70.406 446.807 68.74 444.753 68.74 Z" style="stroke-width: 0.8px; fill-opacity: 0.67; fill: url(#gradient-137); stroke: url(#gradient-138);"/>
        </g>
        <g transform="matrix(1, 0, 0, 1, 23.154455, -29.075422)">
          <line style="paint-order: fill; filter: none; stroke-linecap: round; stroke-miterlimit: 5; stroke-linejoin: round; stroke: rgb(2, 219, 38); stroke-width: 0.5px; fill-opacity: 0.67;" x1="400.604" y1="110.174" x2="403.26" y2="109.531" transform="matrix(0, -1.029553, 0.971296, 0, 295.232756, 523.66268)"/>
          <line style="paint-order: fill; filter: none; stroke-linecap: round; stroke-miterlimit: 5; stroke-linejoin: round; stroke: rgb(2, 219, 38); stroke-width: 0.5px; fill-opacity: 0.67;" x1="408.624" y1="115.464" x2="411.279" y2="114.82" transform="matrix(0, 1.029553, -0.971296, 0, 521.788409, -306.924664)"/>
          <line style="paint-order: fill; filter: none; stroke-linecap: round; stroke-miterlimit: 5; stroke-linejoin: round; stroke: rgb(2, 219, 38); stroke-width: 0.5px; fill-opacity: 0.67;" x1="420.551" y1="114.828" x2="422.096" y2="116.95" transform="matrix(-1, 0, 0, -1, 842.647003, 231.778)"/>
          <line style="paint-order: fill; filter: none; stroke-linecap: round; stroke-miterlimit: 5; stroke-linejoin: round; stroke: rgb(2, 219, 38); stroke-width: 0.5px; fill-opacity: 0.67;" x1="418.198" y1="100.183" x2="420.551" y2="99.645"/>
          <line style="paint-order: fill; filter: none; stroke-linecap: round; stroke-miterlimit: 5; stroke-linejoin: round; stroke: rgb(2, 219, 38); stroke-width: 0.5px; fill-opacity: 0.67;" x1="405.71" y1="100.508" x2="407.995" y2="100.98" transform="matrix(0, 1.029553, -0.971296, 0, 504.704701, -318.132076)"/>
          <line style="paint-order: fill; filter: none; stroke-linecap: round; stroke-miterlimit: 5; stroke-linejoin: round; stroke: rgb(2, 219, 38); stroke-width: 0.5px; fill-opacity: 0.67;" x1="412.687" y1="86.627" x2="413.98" y2="88.508" transform="matrix(0, -1.029553, 0.971296, 0, 328.279583, 513.11613)"/>
          <line style="paint-order: fill; filter: none; stroke-linecap: round; stroke-miterlimit: 5; stroke-linejoin: round; stroke: rgb(78, 2, 219); stroke-width: 0.6px; fill-opacity: 0.67;" x1="413.774" y1="91.419" x2="416.507" y2="90.794"/>
          <line style="paint-order: fill; filter: none; stroke-linecap: round; stroke-miterlimit: 5; stroke-linejoin: round; stroke: rgb(78, 2, 219); stroke-width: 0.5px; fill-opacity: 0.67;" x1="412.068" y1="114.922" x2="414.723" y2="114.278" transform="matrix(0, 1.029553, -0.971296, 0, 524.705967, -311.012443)"/>
          <line style="paint-order: fill; filter: none; stroke-linecap: round; stroke-miterlimit: 5; stroke-linejoin: round; stroke: rgb(78, 2, 219); stroke-width: 0.5px; fill-opacity: 0.67;" x1="416.507" y1="107.709" x2="418.053" y2="109.831" transform="matrix(-1, 0, 0, -1, 834.559998, 217.540001)"/>
          <line style="paint-order: fill; filter: none; stroke-linecap: round; stroke-miterlimit: 5; stroke-linejoin: round; stroke: rgb(78, 2, 219); stroke-width: 0.5px; fill-opacity: 0.67;" x1="404.27" y1="109.877" x2="406.623" y2="109.339"/>
          <line style="paint-order: fill; filter: none; stroke-linecap: round; stroke-miterlimit: 5; stroke-linejoin: round; stroke: rgb(78, 2, 219); stroke-width: 0.5px; fill-opacity: 0.67;" x1="422.231" y1="91.873" x2="424.584" y2="92.331" transform="matrix(-1, 0, 0, -1, 846.815002, 184.204002)"/>
          <line style="paint-order: fill; filter: none; stroke-linecap: round; stroke-miterlimit: 5; stroke-linejoin: round; stroke: rgb(78, 2, 219); stroke-width: 0.5px; fill-opacity: 0.67;" x1="409.595" y1="87.958" x2="410.888" y2="89.839" transform="matrix(0, -1.029553, 0.971296, 0, 323.89478, 511.26374)"/>
          <line style="paint-order: fill; filter: none; stroke-linecap: round; stroke-miterlimit: 5; stroke-linejoin: round; stroke: rgb(198, 31, 84); stroke-width: 0.5px; fill-opacity: 0.67;" x1="405.211" y1="113.534" x2="407.496" y2="112.819" transform="matrix(0, -1.029553, 0.971296, 0, 296.425665, 531.538838)"/>
          <line style="paint-order: fill; filter: none; stroke-linecap: round; stroke-miterlimit: 5; stroke-linejoin: round; stroke: rgb(198, 31, 84); stroke-width: 0.5px; fill-opacity: 0.67;" x1="414.062" y1="116.108" x2="417.006" y2="116.58" transform="matrix(0, -1.029553, 0.971296, 0, 302.529595, 544.158162)"/>
          <line style="paint-order: fill; filter: none; stroke-linecap: round; stroke-miterlimit: 5; stroke-linejoin: round; stroke: rgb(198, 31, 84); stroke-width: 0.5px; fill-opacity: 0.67;" x1="418.048" y1="86.84" x2="419.549" y2="89.654" transform="matrix(0, 1.029553, -0.971296, 0, 504.512428, -342.928133)"/>
          <line style="paint-order: fill; filter: none; stroke-linecap: round; stroke-miterlimit: 5; stroke-linejoin: round; stroke: rgb(78, 2, 219); stroke-width: 0.5px; fill-opacity: 0.67;" x1="413.893" y1="95.579" x2="416.179" y2="95.026" transform="matrix(0, 1.029553, -0.971296, 0, 507.602896, -331.998924)"/>
          <line style="paint-order: fill; filter: none; stroke-linecap: round; stroke-miterlimit: 5; stroke-linejoin: round; stroke: rgb(2, 219, 38); stroke-width: 0.5px; fill-opacity: 0.67;" x1="419.743" y1="91.419" x2="421.155" y2="92.178" transform="matrix(-1, 0, 0, -1, 840.89801, 183.597)"/>
          <line style="paint-order: fill; filter: none; stroke-linecap: round; stroke-miterlimit: 5; stroke-linejoin: round; stroke: rgb(255, 255, 255); stroke-width: 0.5px; fill-opacity: 0.67;" x1="420.551" y1="109.876" x2="422.904" y2="110.414"/>
          <line style="paint-order: fill; filter: none; stroke-linecap: round; stroke-miterlimit: 5; stroke-linejoin: round; stroke: rgb(255, 255, 255); stroke-width: 0.5px; fill-opacity: 0.67;" x1="408.585" y1="97.511" x2="411.318" y2="98.137"/>
          <line style="paint-order: fill; filter: none; stroke-linecap: round; stroke-miterlimit: 5; stroke-linejoin: round; stroke: rgb(255, 255, 255); stroke-width: 0.5px; fill-opacity: 0.67;" x1="408.534" y1="108.385" x2="411.189" y2="109.215" transform="matrix(0, -1.029553, 0.971296, 0, 304.184535, 530.774006)"/>
          <line style="paint-order: fill; filter: none; stroke-linecap: round; stroke-miterlimit: 5; stroke-linejoin: round; stroke: rgb(255, 255, 255); stroke-width: 0.5px; fill-opacity: 0.67;" x1="405.556" y1="93.023" x2="407.909" y2="93.718" transform="matrix(-1, 0, 0, -1, 813.464996, 186.741005)"/>
          <line style="paint-order: fill; filter: none; stroke-linecap: round; stroke-miterlimit: 5; stroke-linejoin: round; stroke: rgb(255, 255, 255); stroke-width: 0.5px; fill-opacity: 0.67;" x1="399.431" y1="106.31" x2="400.697" y2="104.187"/>
          <line style="paint-order: fill; filter: none; stroke-linecap: round; stroke-miterlimit: 5; stroke-linejoin: round; stroke: rgb(2, 219, 38); stroke-width: 0.5px; fill-opacity: 0.67;" x1="417.469" y1="105.046" x2="420.124" y2="105.69" transform="matrix(0, -1.029553, 0.971296, 0, 316.453019, 536.541057)"/>
          <line style="paint-order: fill; filter: none; stroke-linecap: round; stroke-miterlimit: 5; stroke-linejoin: round; stroke: rgb(78, 2, 219); stroke-width: 0.5px; fill-opacity: 0.67;" x1="421.826" y1="112.522" x2="424.179" y2="112.064" transform="matrix(-1, 0, 0, -1, 846.004974, 224.586006)"/>
          <line style="paint-order: fill; filter: none; stroke-linecap: round; stroke-miterlimit: 5; stroke-linejoin: round; stroke: rgb(198, 31, 84); stroke-width: 0.5px; fill-opacity: 0.67;" x1="418.729" y1="96.477" x2="421.462" y2="97.283"/>
          <line style="paint-order: fill; filter: none; stroke-linecap: round; stroke-miterlimit: 5; stroke-linejoin: round; stroke: rgb(198, 31, 84); stroke-width: 0.5px; fill-opacity: 0.67;" x1="419.109" y1="112.539" x2="421.462" y2="113.234"/>
          <line style="paint-order: fill; filter: none; stroke-linecap: round; stroke-miterlimit: 5; stroke-linejoin: round; stroke: rgb(255, 255, 255); stroke-width: 0.5px; fill-opacity: 0.67;" x1="415.32" y1="97.909" x2="418.053" y2="97.283" transform="matrix(-1, 0, 0, -1, 833.373016, 195.191994)"/>
          <line style="paint-order: fill; filter: none; stroke-linecap: round; stroke-miterlimit: 5; stroke-linejoin: round; stroke: rgb(255, 255, 255); stroke-width: 0.5px; fill-opacity: 0.67;" x1="414.218" y1="111.625" x2="416.951" y2="110.819"/>
          <line style="paint-order: fill; filter: none; stroke-linecap: round; stroke-miterlimit: 5; stroke-linejoin: round; stroke: rgb(255, 255, 255); stroke-width: 0.5px; fill-opacity: 0.67;" x1="418.73" y1="94.123" x2="421.083" y2="93.428"/>
          <line style="paint-order: fill; filter: none; stroke-linecap: round; stroke-miterlimit: 5; stroke-linejoin: round; stroke: rgb(198, 31, 84); stroke-width: 0.5px; fill-opacity: 0.67;" x1="409.687" y1="94.126" x2="412.42" y2="94.932"/>
          <line style="paint-order: fill; filter: none; stroke-linecap: round; stroke-miterlimit: 5; stroke-linejoin: round; stroke: rgb(198, 31, 84); stroke-width: 0.5px; fill-opacity: 0.67;" x1="418.821" y1="106.757" x2="421.475" y2="105.928" transform="matrix(0, -1.029553, 0.971296, 0, 316.858005, 538.907017)"/>
          <line style="paint-order: fill; filter: none; stroke-linecap: round; stroke-miterlimit: 5; stroke-linejoin: round; stroke: rgb(198, 31, 84); stroke-width: 0.5px; fill-opacity: 0.67;" x1="410.462" y1="90.488" x2="411.318" y2="92.178"/>
          <line style="paint-order: fill; filter: none; stroke-linecap: round; stroke-miterlimit: 5; stroke-linejoin: round; stroke: rgb(2, 219, 38); stroke-width: 0.5px; fill-opacity: 0.67;" x1="405.242" y1="91.625" x2="407.976" y2="91"/>
          <line style="paint-order: fill; filter: none; stroke-linecap: round; stroke-miterlimit: 5; stroke-linejoin: round; stroke: rgb(2, 219, 38); stroke-width: 0.5px; fill-opacity: 0.67;" x1="399.953" y1="99.645" x2="402.686" y2="99.019" transform="matrix(-1, 0, 0, -1, 802.639008, 198.663994)"/>
          <line style="paint-order: fill; filter: none; stroke-linecap: round; stroke-miterlimit: 5; stroke-linejoin: round; stroke: rgb(2, 219, 38); stroke-width: 0.5px; fill-opacity: 0.67;" x1="423.214" y1="93.332" x2="424.716" y2="95.516" transform="matrix(0, -1.029553, 0.971296, 0, 332.251381, 530.918303)"/>
          <line style="paint-order: fill; filter: none; stroke-linecap: round; stroke-miterlimit: 5; stroke-linejoin: round; stroke: rgb(78, 2, 219); stroke-width: 0.5px; fill-opacity: 0.67;" x1="400.495" y1="103.089" x2="403.228" y2="102.463" transform="matrix(-1, 0, 0, -1, 803.722992, 205.551994)"/>
          <line style="paint-order: fill; filter: none; stroke-linecap: round; stroke-miterlimit: 5; stroke-linejoin: round; stroke: rgb(78, 2, 219); stroke-width: 0.5px; fill-opacity: 0.67;" x1="406.94" y1="105.569" x2="408.442" y2="107.753" transform="matrix(0, -1.029553, 0.971296, 0, 304.091635, 526.40036)"/>
          <line style="paint-order: fill; filter: none; stroke-linecap: round; stroke-miterlimit: 5; stroke-linejoin: round; stroke: rgb(78, 2, 219); stroke-width: 0.5px; fill-opacity: 0.67;" x1="405.704" y1="96.611" x2="407.989" y2="96.057" transform="matrix(0, 1.029553, -0.971296, 0, 500.415302, -322.535922)"/>
          <line style="paint-order: fill; filter: none; stroke-linecap: round; stroke-miterlimit: 5; stroke-linejoin: round; stroke: rgb(198, 31, 84); stroke-width: 0.5px; fill-opacity: 0.67;" x1="402.108" y1="96.082" x2="404.461" y2="95.387"/>
          <line style="paint-order: fill; filter: none; stroke-linecap: round; stroke-miterlimit: 5; stroke-linejoin: round; stroke: rgb(198, 31, 84); stroke-width: 0.5px; fill-opacity: 0.67;" x1="411.155" y1="108.891" x2="414.187" y2="109.349"/>
          <line style="paint-order: fill; filter: none; stroke-linecap: round; stroke-miterlimit: 5; stroke-linejoin: round; stroke: rgb(198, 31, 84); stroke-width: 0.5px; fill-opacity: 0.67;" x1="402.432" y1="109.309" x2="404.717" y2="110.024" transform="matrix(0, 1.029553, -0.971296, 0, 510.093098, -305.834721)"/>
          <line style="paint-order: fill; filter: none; stroke-linecap: round; stroke-miterlimit: 5; stroke-linejoin: round; stroke: rgb(255, 255, 255); stroke-width: 0.5px; fill-opacity: 0.67;" x1="403.912" y1="105.38" x2="406.567" y2="104.55" transform="matrix(0, 1.029553, -0.971296, 0, 507.19153, -312.250404)"/>
          <line style="paint-order: fill; filter: none; stroke-linecap: round; stroke-miterlimit: 5; stroke-linejoin: round; stroke: rgb(198, 31, 84); stroke-width: 0.5px; fill-opacity: 0.67;" x1="403.075" y1="98.065" x2="405.73" y2="98.895" transform="matrix(0, 1.029553, -0.971296, 0, 500.055702, -317.873695)"/>
          <line style="paint-order: fill; filter: none; stroke-linecap: round; stroke-miterlimit: 5; stroke-linejoin: round; stroke: rgb(198, 31, 84); stroke-width: 0.5px; fill-opacity: 0.67;" x1="408.585" y1="104.001" x2="411.318" y2="103.195" transform="matrix(-1, 0, 0, -1, 819.902985, 207.195999)"/>
        </g>
      </g>
    </g>
  </g>
</svg>