<?xml version="1.0" encoding="utf-8"?>
<svg viewBox="65.826 182.791 365.591 193.172" xmlns="http://www.w3.org/2000/svg" xmlnsBx="https://boxy-svg.com">
  <defs>
    <linearGradient gradientUnits="userSpaceOnUse" x1="337.111" y1="168.368" x2="337.111" y2="188.675" id="gradient-54" gradientTransform="matrix(0.542706, 0, 0, 0.542706, 113.818665, 186.866592)">
      <stop offset="0" style="stop-color: rgba(255, 236, 246, 1)"/>
      <stop offset="1" style="stop-color: rgba(255, 134, 199, 1)"/>
    </linearGradient>
    <radialGradient gradientUnits="userSpaceOnUse" cx="415.182" cy="102.489" r="16.482" id="gradient-22" gradientTransform="matrix(0.663059, 0.972357, -0.939472, 0.640635, 266.17749, -396.873932)">
      <stop offset="0" style="stop-color: rgba(197, 96, 56, 1)"/>
      <stop offset="1" style="stop-color: rgb(157, 82, 53);"/>
    </radialGradient>
    <radialGradient gradientUnits="userSpaceOnUse" cx="415.182" cy="102.489" r="16.482" id="gradient-24" gradientTransform="matrix(0.663059, 0.972357, -0.939472, 0.640635, 153.548119, -436.713142)">
      <stop offset="0" style="stop-color: rgba(197, 96, 56, 1)"/>
      <stop offset="1" style="stop-color: rgb(157, 82, 53);"/>
    </radialGradient>
    <radialGradient gradientUnits="userSpaceOnUse" cx="415.182" cy="102.489" r="16.482" id="gradient-25" gradientTransform="matrix(0.663059, 0.972357, -0.939472, 0.640635, 177.117653, -379.975197)">
      <stop offset="0" style="stop-color: rgba(197, 96, 56, 1)"/>
      <stop offset="1" style="stop-color: rgb(157, 82, 53);"/>
    </radialGradient>
    <radialGradient gradientUnits="userSpaceOnUse" cx="415.182" cy="102.489" r="16.482" id="gradient-26" gradientTransform="matrix(0.663059, 0.972357, -0.939472, 0.640635, 280.4578, -470.035843)">
      <stop offset="0" style="stop-color: rgba(197, 96, 56, 1)"/>
      <stop offset="1" style="stop-color: rgb(157, 82, 53);"/>
    </radialGradient>
    <radialGradient gradientUnits="userSpaceOnUse" cx="415.182" cy="102.489" r="16.482" id="gradient-27" gradientTransform="matrix(0.663059, 0.972357, -0.939472, 0.640635, 266.17749, -396.873932)">
      <stop offset="0" style="stop-color: rgba(197, 96, 56, 1)"/>
      <stop offset="1" style="stop-color: rgb(157, 82, 53);"/>
    </radialGradient>
    <radialGradient gradientUnits="userSpaceOnUse" cx="415.182" cy="102.489" r="16.482" id="gradient-28" gradientTransform="matrix(0.999999, 0, -0.000001, 0.999998, 29.999785, -29.99965)">
      <stop offset="0" style="stop-color: rgb(255, 109, 180);"/>
      <stop offset="1" style="stop-color: rgb(255, 0, 123);"/>
    </radialGradient>
    <radialGradient gradientUnits="userSpaceOnUse" cx="415.182" cy="102.489" r="16.482" id="gradient-29" gradientTransform="matrix(0.663059, 0.972355, -0.939472, 0.640637, 266.177228, -396.873583)">
      <stop offset="0" style="stop-color: rgba(197, 96, 56, 1)"/>
      <stop offset="1" style="stop-color: rgb(157, 82, 53);"/>
    </radialGradient>
    <linearGradient gradientUnits="userSpaceOnUse" x1="192.854" y1="90.711" x2="192.854" y2="121.803" id="gradient-125" gradientTransform="matrix(0.278553, -0.465766, 0.751128, 0.449215, 146.216522, 332.702698)">
      <stop offset="0" style="stop-color: rgba(255, 236, 246, 1)"/>
      <stop offset="1" style="stop-color: rgba(255, 134, 199, 1)"/>
    </linearGradient>
    <linearGradient gradientUnits="userSpaceOnUse" x1="233.478" y1="100.869" x2="233.478" y2="121.803" id="gradient-126" gradientTransform="matrix(0.104738, 0.532504, -1.359084, 0.272992, 429.180725, 139.992844)">
      <stop offset="0" style="stop-color: rgba(255, 236, 246, 1)"/>
      <stop offset="1" style="stop-color: rgba(255, 134, 199, 1)"/>
    </linearGradient>
    <radialGradient gradientUnits="userSpaceOnUse" cx="348.99" cy="55.22" r="11.591" id="gradient-62" gradientTransform="matrix(6.554008, 0.613318, -0.269489, 0.818763, -1845.44787, -93.798826)">
      <stop offset="0" style="stop-color: rgba(255, 236, 246, 1)"/>
      <stop offset="1" style="stop-color: rgba(255, 134, 199, 1)"/>
    </radialGradient>
    <linearGradient gradientUnits="userSpaceOnUse" x1="330.447" y1="189.739" x2="330.447" y2="216.071" id="gradient-63" gradientTransform="matrix(-0.48712, -0.946861, 0.922274, -0.503941, 368.3698, 566.383234)">
      <stop offset="0" style="stop-color: rgba(255, 196, 228, 1)"/>
      <stop offset="1" style="stop-color: rgba(255, 94, 182, 1)"/>
    </linearGradient>
  </defs>
  <g transform="matrix(4.239682, 0, 0, 4.239682, -1512.860352, -493.141724)" style="">
    <g transform="matrix(1.740381, 0, 0, 1.740381, -103.311821, -317.718536)">
      <title>caixa-6-revisada</title>
      <path d="M 304.593 281.094 L 317.521 289.901 L 287.253 295.503 L 277.676 285.771 L 304.593 281.094 Z" style="fill: rgb(255, 236, 246);"/>
      <path d="M 281.366 281.727 C 284.385 281.325 303.738 278.603 304.36 278.717 C 304.982 278.832 319.958 288.663 319.423 288.978 L 315.671 289.637 L 304.452 282.178 L 278.781 286.058 L 277.848 285.296 C 279.088 283.943 279.615 283.438 281.366 281.727 Z" style="fill: url(#gradient-54);"/>
      <g transform="matrix(0.999999, 0, 0, 0.999999, 0.000329, 0.000294)">
        <title>seis-donuts</title>
        <g transform="matrix(0.289896, 0.036664, -0.007823, 0.188008, 186.882813, 263.052887)" style="">
          <g transform="matrix(1, 0, 0, 1, -89.059837, 16.898735)">
            <path d="M 461.664 72.489 C 461.664 81.537 454.284 88.871 445.181 88.871 C 436.078 88.871 428.699 81.537 428.699 72.489 C 428.699 63.441 436.078 56.107 445.181 56.107 C 454.284 56.107 461.664 63.441 461.664 72.489 Z M 444.753 68.74 C 442.698 68.74 441.033 70.406 441.033 72.46 C 441.033 74.515 442.698 76.18 444.753 76.18 C 446.807 76.18 448.473 74.515 448.473 72.46 C 448.473 70.406 446.807 68.74 444.753 68.74 Z" style="stroke-width: 0.8px; fill: rgb(243, 227, 215); stroke: url(#gradient-22);"/>
            <path style=""/>
          </g>
          <circle style="fill: none; stroke: rgb(237, 216, 200); stroke-width: 2.64973px;" cx="354.702" cy="87.958" r="12.173" transform="matrix(0.76814, 0, 0, 0.741447, 83.182739, 24.112026)"/>
        </g>
        <g transform="matrix(0.263791, -0.067543, 0.162418, 0.175092, 206.664627, 308.169922)" style="">
          <path d="M 349.034 32.65 C 349.034 41.698 341.654 49.032 332.551 49.032 C 323.448 49.032 316.069 41.698 316.069 32.65 C 316.069 23.602 323.448 16.268 332.551 16.268 C 341.654 16.268 349.034 23.602 349.034 32.65 Z M 332.123 28.901 C 330.068 28.901 328.403 30.567 328.403 32.621 C 328.403 34.676 330.068 36.341 332.123 36.341 C 334.177 36.341 335.843 34.676 335.843 32.621 C 335.843 30.567 334.177 28.901 332.123 28.901 Z" style="stroke-width: 0.8px; fill: rgb(89, 30, 7); stroke: url(#gradient-24);"/>
        </g>
        <g transform="matrix(0.289896, 0.036664, -0.007823, 0.188008, 207.089554, 259.593262)" style="">
          <path d="M 372.604 89.388 C 372.604 98.436 365.224 105.77 356.121 105.77 C 347.018 105.77 339.639 98.436 339.639 89.388 C 339.639 80.34 347.018 73.006 356.121 73.006 C 365.224 73.006 372.604 80.34 372.604 89.388 Z M 355.693 85.639 C 353.638 85.639 351.973 87.305 351.973 89.359 C 351.973 91.414 353.638 93.079 355.693 93.079 C 357.747 93.079 359.413 91.414 359.413 89.359 C 359.413 87.305 357.747 85.639 355.693 85.639 Z" style="stroke-width: 0.8px; fill: rgb(243, 227, 215); stroke: url(#gradient-25);"/>
        </g>
        <g transform="matrix(0.255111, 0, 0.057578, 0.171761, 215.807556, 270.839691)" style="">
          <g transform="matrix(1, 0, 0, 1, -136.759705, 80.958656)" style="">
            <path d="M 475.944 -0.673 C 475.944 8.375 468.564 15.709 459.461 15.709 C 450.358 15.709 442.979 8.375 442.979 -0.673 C 442.979 -9.721 450.358 -17.055 459.461 -17.055 C 468.564 -17.055 475.944 -9.721 475.944 -0.673 Z M 459.033 -4.422 C 456.978 -4.422 455.313 -2.756 455.313 -0.702 C 455.313 1.353 456.978 3.018 459.033 3.018 C 461.087 3.018 462.753 1.353 462.753 -0.702 C 462.753 -2.756 461.087 -4.422 459.033 -4.422 Z" style="stroke-width: 0.8px; fill: rgb(66, 22, 4); stroke: url(#gradient-26);"/>
          </g>
        </g>
        <g transform="matrix(0.225177, -0.057656, 0.138643, 0.149461, 183.782013, 301.071564)">
          <path d="M 461.664 72.489 C 461.664 81.537 454.284 88.871 445.181 88.871 C 436.078 88.871 428.699 81.537 428.699 72.489 C 428.699 63.441 436.078 56.107 445.181 56.107 C 454.284 56.107 461.664 63.441 461.664 72.489 Z M 444.753 68.74 C 442.698 68.74 441.033 70.406 441.033 72.46 C 441.033 74.515 442.698 76.18 444.753 76.18 C 446.807 76.18 448.473 74.515 448.473 72.46 C 448.473 70.406 446.807 68.74 444.753 68.74 Z" style="stroke-width: 0.8px; fill: rgb(89, 30, 7); stroke: url(#gradient-27);"/>
        </g>
        <g transform="matrix(0.836988, -0.169208, 0.609525, 0.909824, -110.859131, 98.090431)" style="">
          <g transform="matrix(0.226424, -0.064753, 0.166016, 0.145501, 170.232605, 279.327606)">
            <path d="M 461.662 72.489 C 461.665 81.538 454.283 88.873 445.179 88.873 C 436.075 88.873 428.697 81.538 428.699 72.489 C 428.7 63.44 436.078 56.104 445.182 56.104 C 454.286 56.104 461.664 63.44 461.662 72.489 Z M 444.752 68.738 C 442.697 68.738 441.033 70.408 441.031 72.462 C 441.032 74.515 442.696 76.181 444.751 76.181 C 446.806 76.181 448.472 74.515 448.47 72.462 C 448.473 70.408 446.808 68.738 444.752 68.738 Z" style="stroke-width: 0.8px; fill: url(#gradient-28); stroke: url(#gradient-29);" transform="matrix(1, 0, 0, 1, 0.000118, -0.000197)"/>
            <path d="M 914.75 86.094 m -5.105 0 a 5.105 4.697 0 1 0 10.21 0 a 5.105 4.697 0 1 0 -10.21 0 Z M 914.75 86.094 m -3.064 0 a 3.064 2.818 0 0 1 6.128 0 a 3.064 2.818 0 0 1 -6.128 0 Z" style="fill: rgb(218, 123, 86);" transform="matrix(-0.707107, 0.707107, -0.707107, -0.707107, 1153.214007, -513.072444)" bxShape="ring 914.75 86.094 3.064 2.818 5.105 4.697 1@49f182f9"/>
          </g>
        </g>
      </g>
      <path d="M 274.91 283.469 L 274.57 288.26 L 287.33 300.343 L 288.094 293.841 L 277.878 285.274 L 276.103 285.771 L 274.91 283.469 Z" style="fill: url(#gradient-125);"/>
      <path d="M 319.437 288.982 L 319.05 294.233 L 287.321 300.343 L 288.094 293.853 L 319.437 288.982 Z" style="fill: url(#gradient-126);"/>
    </g>
    <path d="M 422.921 162.982 C 398.752 165.09 375.487 172.073 375.487 172.073 L 441.517 173.042 L 457.232 162.592 L 458.136 159.767 C 458.136 159.767 445.75 160.991 422.921 162.982 Z" style="fill: url(#gradient-62);" transform="matrix(0.999998, -0.002137, 0.002137, 0.999998, -0.450813, 0.689684)" bx:origin="-0.641 3.882"/>
    <path d="M 374.702 172.366 L 397.628 160.19 L 400.701 172.742 L 377.414 182.067 L 374.702 172.366 Z" style="fill: url(#gradient-63);" transform="matrix(0.956645, 0.291256, -0.291256, 0.956645, 66.930839, -101.999642)" bx:origin="0.053 0.623"/>
    <path d="M 459.035 173.348 L 460.396 160.365 L 402.643 166.499 L 401.589 179.274 L 459.035 173.348 Z" style="fill: rgb(255, 196, 228);" transform="matrix(0.999645, -0.02666, 0.02666, 0.999645, -6.421808, 11.396019)" bx:origin="0.384 4.557"/>
  </g>
</svg>