<svg version="1.1" xmlns="http://www.w3.org/2000/svg" xmlns:xlink="http://www.w3.org/1999/xlink"
    preserveAspectRatio="xMidYMid meet" viewBox="0 0 640 640" width="640" height="640" style="">
    <defs>
        <path
            d="M411.51 420.69C428.12 420.69 443.76 412.82 453.66 399.48C492.59 347.03 593.64 210.86 632.57 158.4C639.08 149.63 632.82 137.19 621.9 137.19C542.94 137.19 340.69 137.19 263.78 137.19C240.53 137.19 218.48 147.49 203.55 165.31C160.78 216.39 51.74 346.61 7.9 398.96C0.69 407.58 6.81 420.69 18.04 420.69C102.02 420.69 327.15 420.69 411.51 420.69Z"
            id="b5xAmRNlMW" class="YepxNknM_0"></path>
        <path
            d="M568.46 248.93C425.33 248.93 335.88 248.93 300.1 248.93C280.24 248.93 261.54 258.34 249.71 274.29C235.23 293.81 199.04 342.61 141.12 420.69"
            id="aboDSfsDW" class="YepxNknM_1"></path>
        <path
            d="M553.93 261.72C554.38 254.92 564.62 239.34 552.89 214.59C520.65 146.54 492.04 166.16 484.83 165.02C440.3 158.02 392.93 201.46 403.29 211.73C423.83 232.1 414.8 261.06 457.68 300C492.5 331.63 552.64 281.48 553.93 261.72ZM502.41 246.09C499.44 254.91 490.48 265.55 469.94 258.61C450.48 252.04 454.83 214.08 489 220.81C497.1 222.4 506.09 235.17 502.41 246.09Z"
            id="e8GWbaX78" class="YepxNknM_2"></path>
        <path
            d="M394.28 291.74C392.26 299.62 387.47 324.81 339.07 314.83C319.68 310.83 303.03 323.72 282.92 295.52C271.58 279.61 264.76 282.88 263.47 263.11C263.02 256.31 250.54 239.54 264.51 215.99C273.93 200.11 275.47 203.66 279.74 196.65C298.38 166.07 325.36 167.55 332.57 166.42C377.1 159.41 424.47 202.85 414.11 213.12C410.73 216.48 428.48 235.45 410.81 267.41C406.07 275.99 398.27 276.12 394.28 291.74ZM315 247.48C317.97 256.3 326.93 266.94 347.47 260.01C366.92 253.44 362.58 215.47 328.4 222.2C320.3 223.8 311.32 236.56 315 247.48Z"
            id="c2kYe56sAT" class="YepxNknM_3"></path>
        <path
            d="M371.22 374.61C373.24 382.49 378.04 407.67 426.44 397.7C445.82 393.7 462.47 406.59 482.58 378.38C493.92 362.48 500.74 365.74 502.03 345.98C502.48 339.18 514.97 322.41 500.99 298.85C491.57 282.98 490.03 286.53 485.76 279.52C467.12 248.94 440.14 250.42 432.93 249.28C388.4 242.28 341.03 285.72 351.39 295.99C371.93 316.36 333.53 312 354.69 350.28C359.43 358.86 367.23 358.99 371.22 374.61ZM450.51 330.35C447.54 339.17 438.58 349.81 418.04 342.87C398.58 336.31 402.93 298.34 437.1 305.07C445.2 306.67 454.18 319.43 450.51 330.35Z"
            id="aRgAj4Jfz" class="YepxNknM_4"></path>
        <path
            d="M228.84 378.38C217.5 362.48 196.46 322.41 210.43 298.85C219.85 282.98 221.39 286.53 225.66 279.52C244.3 248.94 271.28 250.42 278.49 249.28C323.02 242.28 370.39 285.72 360.04 295.99C355 300.98 372.71 321.38 356.73 350.28C351.99 358.86 248.95 406.59 228.84 378.38ZM260.92 330.35C263.89 339.17 272.85 349.81 293.39 342.87C312.84 336.31 308.5 298.34 274.32 305.07C266.22 306.67 257.24 319.43 260.92 330.35Z"
            id="e4EbqkNPPw" class="YepxNknM_5"></path>
        <path
            d="M314.37 458.14C316.39 466.02 321.18 491.2 369.58 481.23C388.97 477.23 405.62 490.12 425.73 461.92C437.07 446.01 443.89 449.27 445.18 429.51C445.63 422.71 458.11 405.94 444.14 382.39C434.72 366.51 433.18 370.06 428.91 363.05C410.27 332.47 383.29 333.95 376.08 332.81C331.55 325.81 284.18 369.25 294.53 379.52C315.07 399.89 276.68 395.53 297.84 433.81C302.58 442.39 310.38 442.52 314.37 458.14ZM393.65 413.88C390.68 422.7 381.72 433.34 361.18 426.4C341.73 419.84 346.07 381.87 380.25 388.6C388.35 390.2 397.33 402.96 393.65 413.88Z"
            id="a58NJwFEGM" class="YepxNknM_6"></path>
        <path
            d="M152.54 429.51C152.09 422.71 140.15 406.25 153.58 382.39C181.47 332.81 214.43 333.95 221.64 332.81C266.17 325.81 328.05 373.83 299.88 433.81C295.71 442.68 153.83 449.27 152.54 429.51ZM204.06 413.88C207.03 422.7 215.99 433.34 236.53 426.4C255.99 419.84 251.64 381.87 217.47 388.6C209.37 390.2 200.39 402.96 204.06 413.88Z"
            id="ckqO4nar" class="YepxNknM_7"></path>
        <path
            d="M424.09 416.7C433.33 416.64 442.02 412.29 447.59 404.91C472.25 372.26 533.9 290.62 632.53 160C632.08 215.41 631.8 250.05 631.68 263.9C631.58 277 627.51 289.75 620.03 300.5C589.45 344.4 508.77 460.21 478.08 504.26C471.21 514.12 459.96 520 447.94 520C359.65 520 113.93 520 25.64 520C14.98 520 6.29 511.48 6.08 500.83C5.84 488.8 5.24 458.75 4.28 410.66C4.28 410.66 4.28 410.66 4.28 410.66C13.21 416.15 23.49 419.02 33.97 418.96C114.93 418.49 342.86 417.17 424.09 416.7Z"
            id="d1qWmc8lp0" class="YepxNknM_8"></path>
    </defs>
    <g>
        <g>
            <g>
                <use xlink:href="#b5xAmRNlMW" opacity="1" fill="#ffecf7" fill-opacity="1"></use>
                <g>
                    <use xlink:href="#b5xAmRNlMW" opacity="1" fill-opacity="0" stroke="#ff77b9" stroke-width="10"
                        stroke-opacity="1"></use>
                </g>
            </g>
            <g>
                <g>
                    <use xlink:href="#aboDSfsDW" opacity="1" fill-opacity="0" stroke="#ff77b9" stroke-width="10"
                        stroke-opacity="1"></use>
                </g>
            </g>
            <g>
                <use xlink:href="#e8GWbaX78" opacity="1" fill="#7d5c1d" fill-opacity="1"></use>
                <g>
                    <use xlink:href="#e8GWbaX78" opacity="1" fill-opacity="0" stroke="#5c3b05" stroke-width="10"
                        stroke-opacity="1"></use>
                </g>
            </g>
            <g>
                <use xlink:href="#c2kYe56sAT" opacity="1" fill="#553707" fill-opacity="1"></use>
                <g>
                    <use xlink:href="#c2kYe56sAT" opacity="1" fill-opacity="0" stroke="#241702" stroke-width="10"
                        stroke-opacity="1"></use>
                </g>
            </g>
            <g>
                <use xlink:href="#aRgAj4Jfz" opacity="1" fill="#d5bd97" fill-opacity="1"></use>
                <g>
                    <use xlink:href="#aRgAj4Jfz" opacity="1" fill-opacity="0" stroke="#a27d41" stroke-width="10"
                        stroke-opacity="1"></use>
                </g>
            </g>
            <g>
                <use xlink:href="#e4EbqkNPPw" opacity="1" fill="#bc005f" fill-opacity="1"></use>
                <g>
                    <use xlink:href="#e4EbqkNPPw" opacity="1" fill-opacity="0" stroke="#75013c" stroke-width="10"
                        stroke-opacity="1"></use>
                </g>
            </g>
            <g>
                <use xlink:href="#a58NJwFEGM" opacity="1" fill="#f962a4" fill-opacity="1"></use>
                <g>
                    <use xlink:href="#a58NJwFEGM" opacity="1" fill-opacity="0" stroke="#75013c" stroke-width="10"
                        stroke-opacity="1"></use>
                </g>
            </g>
            <g>
                <use xlink:href="#ckqO4nar" opacity="1" fill="#8f6f3a" fill-opacity="1"></use>
                <g>
                    <use xlink:href="#ckqO4nar" opacity="1" fill-opacity="0" stroke="#71562a" stroke-width="10"
                        stroke-opacity="1"></use>
                </g>
            </g>
            <g>
                <use xlink:href="#d1qWmc8lp0" opacity="1" fill="#ffc3e6" fill-opacity="1"></use>
                <g>
                    <use xlink:href="#d1qWmc8lp0" opacity="1" fill-opacity="0" stroke="#ff77b9" stroke-width="10"
                        stroke-opacity="1"></use>
                </g>
            </g>
        </g>
    </g>
    <style>
        .YepxNknM_0 {
            stroke-dasharray: 1534 1536;
            stroke-dashoffset: 1535;
            animation: YepxNknM_draw 1000ms linear 0ms forwards;
        }

        .YepxNknM_1 {
            stroke-dasharray: 510 512;
            stroke-dashoffset: 511;
            animation: YepxNknM_draw 1000ms linear 0ms forwards;
        }

        .YepxNknM_2 {
            stroke-dasharray: 606 608;
            stroke-dashoffset: 607;
            animation: YepxNknM_draw 1000ms linear 0ms forwards;
        }

        .YepxNknM_3 {
            stroke-dasharray: 635 637;
            stroke-dashoffset: 636;
            animation: YepxNknM_draw 1000ms linear 0ms forwards;
        }

        .YepxNknM_4 {
            stroke-dasharray: 638 640;
            stroke-dashoffset: 639;
            animation: YepxNknM_draw 1000ms linear 0ms forwards;
        }

        .YepxNknM_5 {
            stroke-dasharray: 609 611;
            stroke-dashoffset: 610;
            animation: YepxNknM_draw 1000ms linear 0ms forwards;
        }

        .YepxNknM_6 {
            stroke-dasharray: 638 640;
            stroke-dashoffset: 639;
            animation: YepxNknM_draw 1000ms linear 0ms forwards;
        }

        .YepxNknM_7 {
            stroke-dasharray: 581 583;
            stroke-dashoffset: 582;
            animation: YepxNknM_draw 1000ms linear 0ms forwards;
        }

        .YepxNknM_8 {
            stroke-dasharray: 1725 1727;
            stroke-dashoffset: 1726;
            animation: YepxNknM_draw 1000ms linear 0ms forwards;
        }

        @keyframes YepxNknM_draw {
            100% {
                stroke-dashoffset: 0;
            }
        }

        @keyframes YepxNknM_fade {
            0% {
                stroke-opacity: 1;
            }

            60% {
                stroke-opacity: 1;
            }

            100% {
                stroke-opacity: 0;
            }
        }
    </style>
</svg>